<?xml version="1.0" encoding="UTF-8" standalone="no"?>
<!-- Created with Inkscape (http://www.inkscape.org/) -->

<svg
   xmlns:dc="http://purl.org/dc/elements/1.1/"
   xmlns:cc="http://creativecommons.org/ns#"
   xmlns:rdf="http://www.w3.org/1999/02/22-rdf-syntax-ns#"
   xmlns:svg="http://www.w3.org/2000/svg"
   xmlns="http://www.w3.org/2000/svg"
   xmlns:sodipodi="http://sodipodi.sourceforge.net/DTD/sodipodi-0.dtd"
   xmlns:inkscape="http://www.inkscape.org/namespaces/inkscape"
   version="1.1"
   id="svg2"
   xml:space="preserve"
   width="614.66669"
   height="460"
   viewBox="0 0 614.66669 460"
   sodipodi:docname="learning_curvesinsqr128_32i_l_hilsinsqr128_32i_l2_hil_num_neuron64_ramdomselected_timesequence_epoch2000_batchsize128_mask10_eta30_transition0_loopnum9_r.svg"
   inkscape:version="0.92.4 (5da689c313, 2019-01-14)"><metadata
     id="metadata8"><rdf:RDF><cc:Work
         rdf:about=""><dc:format>image/svg+xml</dc:format><dc:type
           rdf:resource="http://purl.org/dc/dcmitype/StillImage" /><dc:title></dc:title></cc:Work></rdf:RDF></metadata><defs
     id="defs6"><clipPath
       clipPathUnits="userSpaceOnUse"
       id="clipPath20"><path
         d="M 6,1 V 3450 H 4610 V 1 Z"
         id="path18"
         inkscape:connector-curvature="0" /></clipPath><clipPath
       clipPathUnits="userSpaceOnUse"
       id="clipPath32"><path
         d="m 581.988,382.18 h 3571.02 V 3043.2 H 581.988 Z"
         id="path30"
         inkscape:connector-curvature="0" /></clipPath><clipPath
       clipPathUnits="userSpaceOnUse"
       id="clipPath42"><path
         d="M 6,1 V 3450 H 4610 V 1 Z"
         id="path40"
         inkscape:connector-curvature="0" /></clipPath><clipPath
       clipPathUnits="userSpaceOnUse"
       id="clipPath58"><path
         d="m 581.988,382.18 h 3571.02 V 3043.2 H 581.988 Z"
         id="path56"
         inkscape:connector-curvature="0" /></clipPath><clipPath
       clipPathUnits="userSpaceOnUse"
       id="clipPath68"><path
         d="M 6,1 V 3450 H 4610 V 1 Z"
         id="path66"
         inkscape:connector-curvature="0" /></clipPath><clipPath
       clipPathUnits="userSpaceOnUse"
       id="clipPath84"><path
         d="m 581.988,382.18 h 3571.02 V 3043.2 H 581.988 Z"
         id="path82"
         inkscape:connector-curvature="0" /></clipPath><clipPath
       clipPathUnits="userSpaceOnUse"
       id="clipPath94"><path
         d="M 6,1 V 3450 H 4610 V 1 Z"
         id="path92"
         inkscape:connector-curvature="0" /></clipPath><clipPath
       clipPathUnits="userSpaceOnUse"
       id="clipPath110"><path
         d="m 581.988,382.18 h 3571.02 V 3043.2 H 581.988 Z"
         id="path108"
         inkscape:connector-curvature="0" /></clipPath><clipPath
       clipPathUnits="userSpaceOnUse"
       id="clipPath120"><path
         d="M 6,1 V 3450 H 4610 V 1 Z"
         id="path118"
         inkscape:connector-curvature="0" /></clipPath><clipPath
       clipPathUnits="userSpaceOnUse"
       id="clipPath136"><path
         d="m 581.988,382.18 h 3571.02 V 3043.2 H 581.988 Z"
         id="path134"
         inkscape:connector-curvature="0" /></clipPath><clipPath
       clipPathUnits="userSpaceOnUse"
       id="clipPath146"><path
         d="M 6,1 V 3450 H 4610 V 1 Z"
         id="path144"
         inkscape:connector-curvature="0" /></clipPath><clipPath
       clipPathUnits="userSpaceOnUse"
       id="clipPath162"><path
         d="m 581.988,382.18 h 3571.02 V 3043.2 H 581.988 Z"
         id="path160"
         inkscape:connector-curvature="0" /></clipPath><clipPath
       clipPathUnits="userSpaceOnUse"
       id="clipPath172"><path
         d="M 6,1 V 3450 H 4610 V 1 Z"
         id="path170"
         inkscape:connector-curvature="0" /></clipPath><clipPath
       clipPathUnits="userSpaceOnUse"
       id="clipPath188"><path
         d="m 581.988,382.18 h 3571.02 V 3043.2 H 581.988 Z"
         id="path186"
         inkscape:connector-curvature="0" /></clipPath><clipPath
       clipPathUnits="userSpaceOnUse"
       id="clipPath198"><path
         d="M 6,1 V 3450 H 4610 V 1 Z"
         id="path196"
         inkscape:connector-curvature="0" /></clipPath><clipPath
       clipPathUnits="userSpaceOnUse"
       id="clipPath214"><path
         d="m 581.988,382.18 h 3571.02 V 3043.2 H 581.988 Z"
         id="path212"
         inkscape:connector-curvature="0" /></clipPath><clipPath
       clipPathUnits="userSpaceOnUse"
       id="clipPath224"><path
         d="M 6,1 V 3450 H 4610 V 1 Z"
         id="path222"
         inkscape:connector-curvature="0" /></clipPath><clipPath
       clipPathUnits="userSpaceOnUse"
       id="clipPath240"><path
         d="m 581.988,382.18 h 3571.02 V 3043.2 H 581.988 Z"
         id="path238"
         inkscape:connector-curvature="0" /></clipPath><clipPath
       clipPathUnits="userSpaceOnUse"
       id="clipPath250"><path
         d="m 15.9414,1668.79 c 0,300.66 0.9688,542.69 2.2188,542.69 H 194.609 c 1.25,0 2.231,-242.03 2.231,-542.69 0,-300.63 -0.981,-542.66 -2.231,-542.66 H 18.1602 c -1.25,0 -2.2188,242.03 -2.2188,542.66 z"
         id="path248"
         inkscape:connector-curvature="0" /></clipPath><clipPath
       clipPathUnits="userSpaceOnUse"
       id="clipPath256"><path
         d="M 10,1120 H 200 V 2220 H 10 Z"
         id="path254"
         inkscape:connector-curvature="0" /></clipPath><clipPath
       clipPathUnits="userSpaceOnUse"
       id="clipPath262"><path
         d="M 10,1120 H 200 V 2220 H 10 Z"
         id="path260"
         inkscape:connector-curvature="0" /></clipPath><clipPath
       clipPathUnits="userSpaceOnUse"
       id="clipPath276"><path
         d="m 581.988,382.18 h 3571.02 V 3043.2 H 581.988 Z"
         id="path274"
         inkscape:connector-curvature="0" /></clipPath><clipPath
       clipPathUnits="userSpaceOnUse"
       id="clipPath286"><path
         d="M 6,1 V 3450 H 4610 V 1 Z"
         id="path284"
         inkscape:connector-curvature="0" /></clipPath><clipPath
       clipPathUnits="userSpaceOnUse"
       id="clipPath302"><path
         d="m 581.988,382.18 h 3571.02 V 3043.2 H 581.988 Z"
         id="path300"
         inkscape:connector-curvature="0" /></clipPath><clipPath
       clipPathUnits="userSpaceOnUse"
       id="clipPath312"><path
         d="M 6,1 V 3450 H 4610 V 1 Z"
         id="path310"
         inkscape:connector-curvature="0" /></clipPath><clipPath
       clipPathUnits="userSpaceOnUse"
       id="clipPath328"><path
         d="m 581.988,382.18 h 3571.02 V 3043.2 H 581.988 Z"
         id="path326"
         inkscape:connector-curvature="0" /></clipPath><clipPath
       clipPathUnits="userSpaceOnUse"
       id="clipPath338"><path
         d="M 6,1 V 3450 H 4610 V 1 Z"
         id="path336"
         inkscape:connector-curvature="0" /></clipPath><clipPath
       clipPathUnits="userSpaceOnUse"
       id="clipPath354"><path
         d="m 581.988,382.18 h 3571.02 V 3043.2 H 581.988 Z"
         id="path352"
         inkscape:connector-curvature="0" /></clipPath><clipPath
       clipPathUnits="userSpaceOnUse"
       id="clipPath364"><path
         d="M 6,1 V 3450 H 4610 V 1 Z"
         id="path362"
         inkscape:connector-curvature="0" /></clipPath><clipPath
       clipPathUnits="userSpaceOnUse"
       id="clipPath380"><path
         d="m 581.988,382.18 h 3571.02 V 3043.2 H 581.988 Z"
         id="path378"
         inkscape:connector-curvature="0" /></clipPath><clipPath
       clipPathUnits="userSpaceOnUse"
       id="clipPath390"><path
         d="m 2589.41,155.039 c 0,-51.519 -1.01,-93.0077 -2.22,-93.0077 h -522.74 c -1.25,0 -2.22,41.4887 -2.22,93.0077 0,51.563 0.97,93.051 2.22,93.051 h 522.74 c 1.21,0 2.22,-41.488 2.22,-93.051 z"
         id="path388"
         inkscape:connector-curvature="0" /></clipPath><clipPath
       clipPathUnits="userSpaceOnUse"
       id="clipPath396"><path
         d="m 2060,60 h 530 v 190 h -530 z"
         id="path394"
         inkscape:connector-curvature="0" /></clipPath><clipPath
       clipPathUnits="userSpaceOnUse"
       id="clipPath402"><path
         d="m 2060,60 h 530 v 156.25 h -530 z"
         id="path400"
         inkscape:connector-curvature="0" /></clipPath><clipPath
       clipPathUnits="userSpaceOnUse"
       id="clipPath408"><path
         d="m 2060,60 h 530 v 160 h -530 z"
         id="path406"
         inkscape:connector-curvature="0" /></clipPath><clipPath
       clipPathUnits="userSpaceOnUse"
       id="clipPath422"><path
         d="m 581.988,382.18 h 3571.02 V 3043.2 H 581.988 Z"
         id="path420"
         inkscape:connector-curvature="0" /></clipPath><clipPath
       clipPathUnits="userSpaceOnUse"
       id="clipPath432"><path
         d="M 6,1 V 3450 H 4610 V 1 Z"
         id="path430"
         inkscape:connector-curvature="0" /></clipPath></defs><sodipodi:namedview
     pagecolor="#ffffff"
     bordercolor="#666666"
     borderopacity="1"
     objecttolerance="10"
     gridtolerance="10"
     guidetolerance="10"
     inkscape:pageopacity="0"
     inkscape:pageshadow="2"
     inkscape:window-width="1920"
     inkscape:window-height="1017"
     id="namedview4"
     showgrid="false"
     inkscape:zoom="1.4511061"
     inkscape:cx="356.99745"
     inkscape:cy="213.47914"
     inkscape:window-x="1272"
     inkscape:window-y="-8"
     inkscape:window-maximized="1"
     inkscape:current-layer="g10" /><g
     id="g10"
     inkscape:groupmode="layer"
     inkscape:label="ink_ext_XXXXXX"
     transform="matrix(1.3333333,0,0,-1.3333333,0,460)"><g
       id="g12"
       transform="scale(0.1)"><g
         id="g14"><g
           id="g16"
           clip-path="url(#clipPath20)"><path
             d="M 6.01953,1.98828 H 4613.9895 V 3458.0083 H 6.01953 Z"
             style="fill:#ffffff;fill-opacity:1;fill-rule:nonzero;stroke:none"
             id="path22"
             inkscape:connector-curvature="0" /><path
             d="m 581.988,382.148 h 3571.21 v 2661.13 H 581.988 Z"
             style="fill:#ffffff;fill-opacity:1;fill-rule:nonzero;stroke:none"
             id="path24"
             inkscape:connector-curvature="0" /></g></g><g
         id="g26"><g
           id="g28"
           clip-path="url(#clipPath32)"><path
             d="M 744.34,382.148 V 3043.28"
             style="fill:none;stroke:#b0b0b0;stroke-width:8;stroke-linecap:square;stroke-linejoin:round;stroke-miterlimit:10;stroke-dasharray:none;stroke-opacity:1"
             id="path34"
             inkscape:connector-curvature="0" /></g></g><g
         id="g36"><g
           id="g38"
           clip-path="url(#clipPath42)"><path
             d="m 744.34,382.148 v -35"
             style="fill:none;stroke:#000000;stroke-width:8;stroke-linecap:butt;stroke-linejoin:round;stroke-miterlimit:10;stroke-dasharray:none;stroke-opacity:1"
             id="path44"
             inkscape:connector-curvature="0" /><g
             id="g46"
             transform="scale(10)"><text
               transform="matrix(1,0,0,-1,71.2531,23.6223)"
               style="font-variant:normal;font-weight:normal;font-size:10px;font-family:Arial;-inkscape-font-specification:ArialMT;writing-mode:lr-tb;fill:#000000;fill-opacity:1;fill-rule:nonzero;stroke:none"
               id="text50"><tspan
                 x="0"
                 y="0"
                 id="tspan48">0</tspan></text>
</g></g></g><g
         id="g52"><g
           id="g54"
           clip-path="url(#clipPath58)"><path
             d="M 1150.35,382.148 V 3043.28"
             style="fill:none;stroke:#b0b0b0;stroke-width:8;stroke-linecap:square;stroke-linejoin:round;stroke-miterlimit:10;stroke-dasharray:none;stroke-opacity:1"
             id="path60"
             inkscape:connector-curvature="0" /></g></g><g
         id="g62"><g
           id="g64"
           clip-path="url(#clipPath68)"><path
             d="m 1150.35,382.148 v -35"
             style="fill:none;stroke:#000000;stroke-width:8;stroke-linecap:butt;stroke-linejoin:round;stroke-miterlimit:10;stroke-dasharray:none;stroke-opacity:1"
             id="path70"
             inkscape:connector-curvature="0" /><g
             id="g72"
             transform="scale(10)"><text
               transform="matrix(1,0,0,-1,105.496,23.6223)"
               style="font-variant:normal;font-weight:normal;font-size:10px;font-family:Arial;-inkscape-font-specification:ArialMT;writing-mode:lr-tb;fill:#000000;fill-opacity:1;fill-rule:nonzero;stroke:none"
               id="text76"><tspan
                 x="0 6.3601952 12.72039"
                 y="0"
                 sodipodi:role="line"
                 id="tspan74">250</tspan></text>
</g></g></g><g
         id="g78"><g
           id="g80"
           clip-path="url(#clipPath84)"><path
             d="M 1556.37,382.148 V 3043.28"
             style="fill:none;stroke:#b0b0b0;stroke-width:8;stroke-linecap:square;stroke-linejoin:round;stroke-miterlimit:10;stroke-dasharray:none;stroke-opacity:1"
             id="path86"
             inkscape:connector-curvature="0" /></g></g><g
         id="g88"><g
           id="g90"
           clip-path="url(#clipPath94)"><path
             d="m 1556.37,382.148 v -35"
             style="fill:none;stroke:#000000;stroke-width:8;stroke-linecap:butt;stroke-linejoin:round;stroke-miterlimit:10;stroke-dasharray:none;stroke-opacity:1"
             id="path96"
             inkscape:connector-curvature="0" /><g
             id="g98"
             transform="scale(10)"><text
               transform="matrix(1,0,0,-1,146.098,23.6223)"
               style="font-variant:normal;font-weight:normal;font-size:10px;font-family:Arial;-inkscape-font-specification:ArialMT;writing-mode:lr-tb;fill:#000000;fill-opacity:1;fill-rule:nonzero;stroke:none"
               id="text102"><tspan
                 x="0 6.3601952 12.72039"
                 y="0"
                 sodipodi:role="line"
                 id="tspan100">500</tspan></text>
</g></g></g><g
         id="g104"><g
           id="g106"
           clip-path="url(#clipPath110)"><path
             d="M 1962.38,382.148 V 3043.28"
             style="fill:none;stroke:#b0b0b0;stroke-width:8;stroke-linecap:square;stroke-linejoin:round;stroke-miterlimit:10;stroke-dasharray:none;stroke-opacity:1"
             id="path112"
             inkscape:connector-curvature="0" /></g></g><g
         id="g114"><g
           id="g116"
           clip-path="url(#clipPath120)"><path
             d="m 1962.38,382.148 v -35"
             style="fill:none;stroke:#000000;stroke-width:8;stroke-linecap:butt;stroke-linejoin:round;stroke-miterlimit:10;stroke-dasharray:none;stroke-opacity:1"
             id="path122"
             inkscape:connector-curvature="0" /><g
             id="g124"
             transform="scale(10)"><text
               transform="matrix(1,0,0,-1,186.7,23.6223)"
               style="font-variant:normal;font-weight:normal;font-size:10px;font-family:Arial;-inkscape-font-specification:ArialMT;writing-mode:lr-tb;fill:#000000;fill-opacity:1;fill-rule:nonzero;stroke:none"
               id="text128"><tspan
                 x="0 6.3601952 12.72039"
                 y="0"
                 sodipodi:role="line"
                 id="tspan126">750</tspan></text>
</g></g></g><g
         id="g130"><g
           id="g132"
           clip-path="url(#clipPath136)"><path
             d="M 2368.4,382.148 V 3043.28"
             style="fill:none;stroke:#b0b0b0;stroke-width:8;stroke-linecap:square;stroke-linejoin:round;stroke-miterlimit:10;stroke-dasharray:none;stroke-opacity:1"
             id="path138"
             inkscape:connector-curvature="0" /></g></g><g
         id="g140"><g
           id="g142"
           clip-path="url(#clipPath146)"><path
             d="m 2368.4,382.148 v -35"
             style="fill:none;stroke:#000000;stroke-width:8;stroke-linecap:butt;stroke-linejoin:round;stroke-miterlimit:10;stroke-dasharray:none;stroke-opacity:1"
             id="path148"
             inkscape:connector-curvature="0" /><g
             id="g150"
             transform="scale(10)"><text
               transform="matrix(1,0,0,-1,224.123,23.6223)"
               style="font-variant:normal;font-weight:normal;font-size:10px;font-family:Arial;-inkscape-font-specification:ArialMT;writing-mode:lr-tb;fill:#000000;fill-opacity:1;fill-rule:nonzero;stroke:none"
               id="text154"><tspan
                 x="0 6.3601952 12.72039 19.080585"
                 y="0"
                 sodipodi:role="line"
                 id="tspan152">1000</tspan></text>
</g></g></g><g
         id="g156"><g
           id="g158"
           clip-path="url(#clipPath162)"><path
             d="M 2774.41,382.148 V 3043.28"
             style="fill:none;stroke:#b0b0b0;stroke-width:8;stroke-linecap:square;stroke-linejoin:round;stroke-miterlimit:10;stroke-dasharray:none;stroke-opacity:1"
             id="path164"
             inkscape:connector-curvature="0" /></g></g><g
         id="g166"><g
           id="g168"
           clip-path="url(#clipPath172)"><path
             d="m 2774.41,382.148 v -35"
             style="fill:none;stroke:#000000;stroke-width:8;stroke-linecap:butt;stroke-linejoin:round;stroke-miterlimit:10;stroke-dasharray:none;stroke-opacity:1"
             id="path174"
             inkscape:connector-curvature="0" /><g
             id="g176"
             transform="scale(10)"><text
               transform="matrix(1,0,0,-1,264.725,23.6223)"
               style="font-variant:normal;font-weight:normal;font-size:10px;font-family:Arial;-inkscape-font-specification:ArialMT;writing-mode:lr-tb;fill:#000000;fill-opacity:1;fill-rule:nonzero;stroke:none"
               id="text180"><tspan
                 x="0 6.3601952 12.72039 19.080585"
                 y="0"
                 sodipodi:role="line"
                 id="tspan178">1250</tspan></text>
</g></g></g><g
         id="g182"><g
           id="g184"
           clip-path="url(#clipPath188)"><path
             d="M 3180.47,382.148 V 3043.28"
             style="fill:none;stroke:#b0b0b0;stroke-width:8;stroke-linecap:square;stroke-linejoin:round;stroke-miterlimit:10;stroke-dasharray:none;stroke-opacity:1"
             id="path190"
             inkscape:connector-curvature="0" /></g></g><g
         id="g192"><g
           id="g194"
           clip-path="url(#clipPath198)"><path
             d="m 3180.47,382.148 v -35"
             style="fill:none;stroke:#000000;stroke-width:8;stroke-linecap:butt;stroke-linejoin:round;stroke-miterlimit:10;stroke-dasharray:none;stroke-opacity:1"
             id="path200"
             inkscape:connector-curvature="0" /><g
             id="g202"
             transform="scale(10)"><text
               transform="matrix(1,0,0,-1,305.327,23.6223)"
               style="font-variant:normal;font-weight:normal;font-size:10px;font-family:Arial;-inkscape-font-specification:ArialMT;writing-mode:lr-tb;fill:#000000;fill-opacity:1;fill-rule:nonzero;stroke:none"
               id="text206"><tspan
                 x="0 6.3601952 12.72039 19.080585"
                 y="0"
                 sodipodi:role="line"
                 id="tspan204">1500</tspan></text>
</g></g></g><g
         id="g208"><g
           id="g210"
           clip-path="url(#clipPath214)"><path
             d="M 3586.48,382.148 V 3043.28"
             style="fill:none;stroke:#b0b0b0;stroke-width:8;stroke-linecap:square;stroke-linejoin:round;stroke-miterlimit:10;stroke-dasharray:none;stroke-opacity:1"
             id="path216"
             inkscape:connector-curvature="0" /></g></g><g
         id="g218"><g
           id="g220"
           clip-path="url(#clipPath224)"><path
             d="m 3586.48,382.148 v -35"
             style="fill:none;stroke:#000000;stroke-width:8;stroke-linecap:butt;stroke-linejoin:round;stroke-miterlimit:10;stroke-dasharray:none;stroke-opacity:1"
             id="path226"
             inkscape:connector-curvature="0" /><g
             id="g228"
             transform="scale(10)"><text
               transform="matrix(1,0,0,-1,345.929,23.6223)"
               style="font-variant:normal;font-weight:normal;font-size:10px;font-family:Arial;-inkscape-font-specification:ArialMT;writing-mode:lr-tb;fill:#000000;fill-opacity:1;fill-rule:nonzero;stroke:none"
               id="text232"><tspan
                 x="0 6.3601952 12.72039 19.080585"
                 y="0"
                 sodipodi:role="line"
                 id="tspan230">1750</tspan></text>
</g></g></g><g
         id="g234"><g
           id="g236"
           clip-path="url(#clipPath240)"><path
             d="M 3992.5,382.148 V 3043.28"
             style="fill:none;stroke:#b0b0b0;stroke-width:8;stroke-linecap:square;stroke-linejoin:round;stroke-miterlimit:10;stroke-dasharray:none;stroke-opacity:1"
             id="path242"
             inkscape:connector-curvature="0" /></g></g><g
         id="g244"><g
           id="g246"
           clip-path="url(#clipPath250)"><g
             id="g252"
             clip-path="url(#clipPath256)"><g
               id="g258"
               clip-path="url(#clipPath262)"><g
                 id="g264"
                 transform="scale(10)"><text
                   transform="matrix(0,1,1,0,13.868,148.697)"
                   style="font-variant:normal;font-weight:normal;font-size:10px;font-family:Arial;-inkscape-font-specification:ArialMT;writing-mode:lr-tb;fill:#000000;fill-opacity:1;fill-rule:nonzero;stroke:none"
                   id="text268"><tspan
                     x="0 5.5 11.610195 15.730039 19.840117 25.990156 31.490156"
                     y="0"
                     sodipodi:role="line"
                     id="tspan266">correct</tspan></text>
</g></g></g></g></g><g
         id="g270"><g
           id="g272"
           clip-path="url(#clipPath276)"><path
             d="M 581.988,787.031 H 4153.2"
             style="fill:none;stroke:#b0b0b0;stroke-width:8;stroke-linecap:square;stroke-linejoin:round;stroke-miterlimit:10;stroke-dasharray:none;stroke-opacity:1"
             id="path278"
             inkscape:connector-curvature="0" /></g></g><g
         id="g280"><g
           id="g282"
           clip-path="url(#clipPath286)"><path
             d="m 581.988,787.031 h -35"
             style="fill:none;stroke:#000000;stroke-width:8;stroke-linecap:butt;stroke-linejoin:round;stroke-miterlimit:10;stroke-dasharray:none;stroke-opacity:1"
             id="path288"
             inkscape:connector-curvature="0" /><g
             id="g290"
             transform="scale(10)"><text
               transform="matrix(1,0,0,-1,19.4031,74.9055)"
               style="font-variant:normal;font-weight:normal;font-size:10px;font-family:Arial;-inkscape-font-specification:ArialMT;writing-mode:lr-tb;fill:#000000;fill-opacity:1;fill-rule:nonzero;stroke:none"
               id="text294"><tspan
                 x="0 6.3601952 12.72039 19.080585 25.440781"
                 y="0"
                 sodipodi:role="line"
                 id="tspan292">10000</tspan></text>
</g></g></g><g
         id="g296"><g
           id="g298"
           clip-path="url(#clipPath302)"><path
             d="M 581.988,1333.01 H 4153.2"
             style="fill:none;stroke:#b0b0b0;stroke-width:8;stroke-linecap:square;stroke-linejoin:round;stroke-miterlimit:10;stroke-dasharray:none;stroke-opacity:1"
             id="path304"
             inkscape:connector-curvature="0" /></g></g><g
         id="g306"><g
           id="g308"
           clip-path="url(#clipPath312)"><path
             d="m 581.988,1333.01 h -35"
             style="fill:none;stroke:#000000;stroke-width:8;stroke-linecap:butt;stroke-linejoin:round;stroke-miterlimit:10;stroke-dasharray:none;stroke-opacity:1"
             id="path314"
             inkscape:connector-curvature="0" /><g
             id="g316"
             transform="scale(10)"><text
               transform="matrix(1,0,0,-1,19.4031,129.503)"
               style="font-variant:normal;font-weight:normal;font-size:10px;font-family:Arial;-inkscape-font-specification:ArialMT;writing-mode:lr-tb;fill:#000000;fill-opacity:1;fill-rule:nonzero;stroke:none"
               id="text320"><tspan
                 x="0 6.3601952 12.72039 19.080585 25.440781"
                 y="0"
                 sodipodi:role="line"
                 id="tspan318">12000</tspan></text>
</g></g></g><g
         id="g322"><g
           id="g324"
           clip-path="url(#clipPath328)"><path
             d="M 581.988,1878.98 H 4153.2"
             style="fill:none;stroke:#b0b0b0;stroke-width:8;stroke-linecap:square;stroke-linejoin:round;stroke-miterlimit:10;stroke-dasharray:none;stroke-opacity:1"
             id="path330"
             inkscape:connector-curvature="0" /></g></g><g
         id="g332"><g
           id="g334"
           clip-path="url(#clipPath338)"><path
             d="m 581.988,1878.98 h -35"
             style="fill:none;stroke:#000000;stroke-width:8;stroke-linecap:butt;stroke-linejoin:round;stroke-miterlimit:10;stroke-dasharray:none;stroke-opacity:1"
             id="path340"
             inkscape:connector-curvature="0" /><g
             id="g342"
             transform="scale(10)"><text
               transform="matrix(1,0,0,-1,19.4031,184.1)"
               style="font-variant:normal;font-weight:normal;font-size:10px;font-family:Arial;-inkscape-font-specification:ArialMT;writing-mode:lr-tb;fill:#000000;fill-opacity:1;fill-rule:nonzero;stroke:none"
               id="text346"><tspan
                 x="0 6.3601952 12.72039 19.080585 25.440781"
                 y="0"
                 sodipodi:role="line"
                 id="tspan344">14000</tspan></text>
</g></g></g><g
         id="g348"><g
           id="g350"
           clip-path="url(#clipPath354)"><path
             d="M 581.988,2424.92 H 4153.2"
             style="fill:none;stroke:#b0b0b0;stroke-width:8;stroke-linecap:square;stroke-linejoin:round;stroke-miterlimit:10;stroke-dasharray:none;stroke-opacity:1"
             id="path356"
             inkscape:connector-curvature="0" /></g></g><g
         id="g358"><g
           id="g360"
           clip-path="url(#clipPath364)"><path
             d="m 581.988,2424.92 h -35"
             style="fill:none;stroke:#000000;stroke-width:8;stroke-linecap:butt;stroke-linejoin:round;stroke-miterlimit:10;stroke-dasharray:none;stroke-opacity:1"
             id="path366"
             inkscape:connector-curvature="0" /><g
             id="g368"
             transform="scale(10)"><text
               transform="matrix(1,0,0,-1,19.4031,238.697)"
               style="font-variant:normal;font-weight:normal;font-size:10px;font-family:Arial;-inkscape-font-specification:ArialMT;writing-mode:lr-tb;fill:#000000;fill-opacity:1;fill-rule:nonzero;stroke:none"
               id="text372"><tspan
                 x="0 6.3601952 12.72039 19.080585 25.440781"
                 y="0"
                 sodipodi:role="line"
                 id="tspan370">16000</tspan></text>
</g></g></g><g
         id="g374"><g
           id="g376"
           clip-path="url(#clipPath380)"><path
             d="M 581.988,2970.9 H 4153.2"
             style="fill:none;stroke:#b0b0b0;stroke-width:8;stroke-linecap:square;stroke-linejoin:round;stroke-miterlimit:10;stroke-dasharray:none;stroke-opacity:1"
             id="path382"
             inkscape:connector-curvature="0" /></g></g><g
         id="g384"><g
           id="g386"
           clip-path="url(#clipPath390)"><g
             id="g392"
             clip-path="url(#clipPath396)"><g
               id="g398"
               clip-path="url(#clipPath402)"><g
                 id="g404"
                 clip-path="url(#clipPath408)"><g
                   id="g410"
                   transform="scale(10)"><text
                     transform="matrix(1,0,0,-1,220.644,8.89961)"
                     style="font-variant:normal;font-weight:normal;font-size:10px;font-family:Arial;-inkscape-font-specification:ArialMT;writing-mode:lr-tb;fill:#000000;fill-opacity:1;fill-rule:nonzero;stroke:none"
                     id="text414"><tspan
                       x="0 6.1500392 12.500078 18.610273 24.110273"
                       y="0"
                       sodipodi:role="line"
                       id="tspan412">epoch</tspan></text>
</g></g></g></g></g></g><g
         id="g416"><g
           id="g418"
           clip-path="url(#clipPath422)"><path
             d="m 744.34,503.121 1.601,349.418 h 1.637 l 1.602,-349.418 1.64,349.418 1.641,-349.418 1.598,349.418 1.64,-349.418 1.602,1364.649 3.25,-1364.649 1.64,765.709 1.637,-745.51 1.602,329.219 h 3.242 l 1.637,1464.301 1.64,-1464.301 1.602,27.031 1.648,223.28 1.602,1241.56 1.64,-1491.871 1.637,388.751 1.602,974.8 1.64,-1338.981 1.602,1556.841 1.637,-1908.169 1.601,326.758 h 1.641 l 1.648,1614.731 1.602,-1614.731 h 1.64 l 1.598,18.551 1.641,332.78 1.601,1288.79 1.641,-1640.121 1.637,1291.251 1.601,-844.1 1.641,1237.73 1.609,-104.84 1.641,-1580.041 1.597,1447.931 1.641,200.35 1.641,-108.09 1.601,-349.96 1.641,449.34 1.598,-521.95 1.64,-1117.621 1.61,1661.951 1.64,-1661.951 1.641,1250.551 1.597,-1355.36 1.641,1612.23 1.602,124.77 3.238,-846.8 1.641,-711.68 1.64,1579.22 1.61,-747.42 1.64,-113.28 1.602,1061.09 1.636,-171.72 1.641,163.79 1.602,-1845.121 3.238,1564.221 1.641,60.86 1.609,-98.01 1.641,-1367.93 1.64,1157.74 1.602,328.4 3.238,-1874.031 1.641,1814.261 1.597,-381.37 1.641,419.57 1.641,-515.11 1.609,-17.74 1.641,632.5 3.242,-151.8 1.636,333.6 1.602,-1277.58 1.641,223.59 1.597,1061.37 1.641,-1751.48 1.601,132.97 1.649,1606.25 3.242,-147.7 1.641,140.59 1.597,-31.68 1.641,-525.75 3.238,578.44 3.242,-1299.41 1.649,1305.7 1.601,-469.8 1.641,443.59 1.598,42.3 1.64,-292.65 3.243,230.15 1.636,31.65 1.602,-249.22 1.64,227.38 1.61,49.41 1.64,-1287.11 1.641,162.15 1.598,947.54 3.242,-676.21 1.641,150.43 1.636,660.9 1.602,28.4 1.64,-244.34 1.61,-74.26 1.64,343.44 1.598,-193.01 1.641,123.95 1.64,-443.63 1.602,335.5 1.641,-1105.58 1.597,1049.37 1.641,10.35 1.609,157 3.281,-235.04 1.598,210.7 1.641,-10.62 1.601,-185.36 1.641,-463.28 1.598,620.78 1.64,-323.2 1.641,41.21 1.609,421.21 1.641,-621.29 1.601,176.33 1.637,322.66 1.602,-591.53 1.64,466.25 1.641,129.93 1.598,-200.08 1.64,318.83 3.25,-286.64 1.602,282.53 1.64,-1.09 1.637,-30.55 1.602,-281.99 1.64,235.59 3.239,-349.14 1.64,379.14 1.602,-132.66 1.648,30.04 1.602,158.05 1.639,-307.66 1.64,291.02 1.6,-197.66 1.6,214.57 1.64,-103.98 1.64,104.8 1.6,-129.96 1.64,129.96 1.65,-342.62 1.6,253.36 1.64,-309.84 1.6,373.71 3.24,-470.35 3.24,496.56 1.64,-19.1 1.64,19.92 1.61,-15 1.64,-67.69 1.6,1.32 1.64,-51.56 1.6,131.84 1.64,-9.03 1.64,-128.55 1.6,116.56 1.64,-21.56 3.25,45.59 1.64,-94.73 1.6,96.09 1.64,-8.2 1.6,-180.98 3.24,180.43 1.64,4.38 1.64,-22.66 1.61,26.21 3.24,-48.59 1.64,-163.24 1.64,28.4 1.6,185.35 1.64,-5.75 1.6,5.47 1.64,-16.36 3.25,16.09 1.64,1.64 1.6,-0.82 1.64,-2.73 1.6,-221.68 1.64,216.21 1.6,-59.77 1.64,58.95 1.64,4.37 1.61,-56.79 1.64,61.17 1.6,-13.67 1.64,-73.99 1.64,88.75 3.24,-12.85 1.6,-26.76 1.64,32.77 1.6,7.11 1.65,-2.18 1.64,-7.93 1.6,10.11 1.64,1.64 3.24,-87.1 1.6,87.93 3.24,-9.3 3.29,7.11 1.6,-14.77 1.64,16.96 1.6,-155.63 1.64,145.51 1.6,-32.78 1.64,42.62 1.64,-61.17 1.6,53.24 h 1.64 l 1.65,-2.73 3.24,10.39 1.6,-4.1 1.64,4.1 1.6,-6.02 1.64,-1.64 1.6,-280.9 1.64,279.81 1.64,-17.74 1.61,23.75 1.64,-63.86 1.6,67.97 1.64,-168.44 1.64,161.87 3.24,0.82 1.6,5.75 1.64,-221.68 1.61,223.82 1.64,-53.2 1.64,38.48 1.6,-77.27 1.64,89.57 1.6,-45.35 3.24,46.72 1.64,-11.49 1.64,10.94 1.61,-25.39 1.64,20.74 1.6,-84.64 1.64,68.78 1.64,19.42 1.6,2.19 1.64,-5.75 1.6,1.92 1.64,4.33 1.6,-49.37 1.65,48.32 1.64,-3.01 1.6,-0.27 1.64,3.01 3.24,-22.11 1.6,-1.64 1.64,20.46 1.64,-3.55 1.6,9.8 3.25,-15.54 1.64,-48.05 1.6,56.8 4.88,5.15 1.64,-2.42 3.24,-32.77 1.65,34.69 1.6,1.32 1.64,-1.09 3.24,-5.43 1.6,3.56 1.64,-6.02 1.6,-41.48 1.64,50.46 1.64,1.1 1.61,-0.28 3.24,-2.69 3.24,-0.82 1.64,2.42 1.64,-6.52 1.6,-105.67 1.64,110.04 1.61,-3.83 3.28,5.16 1.6,-1.87 1.64,-6.84 1.6,-1.64 1.64,-42.03 1.6,51.33 1.64,-7.66 1.64,-37.7 1.61,42.35 1.64,-2.46 3.24,8.43 1.64,-25.39 1.6,25.12 1.64,-10.62 1.6,8.98 1.64,0.27 1.61,3.83 1.64,-27.26 1.64,25.07 1.6,-1.32 3.24,2.14 1.64,-20.19 1.6,17.73 1.64,1.1 1.64,2.73 1.61,-27.85 1.64,28.95 4.88,-4.11 1.6,-36.83 1.64,37.65 1.6,3.56 1.64,-3.56 1.6,2.47 3.29,-9.81 1.6,10.9 1.64,-1.64 1.6,1.37 1.64,-2.47 3.24,0.83 1.6,-5.98 1.64,6.8 1.65,-4.38 6.48,5.74 1.6,-2.18 1.64,-4.89 1.64,5.43 1.6,0.55 1.64,-1.37 1.65,4.1 1.6,-3.28 1.64,0.28 1.6,-12 1.64,15 1.6,-3.28 h 1.64 l 1.6,-1.91 1.64,5.47 1.64,-5.47 1.61,2.73 h 1.64 l 1.6,-8.44 1.64,11.72 1.64,-3 1.6,-18.56 1.64,18.83 1.6,-11.99 1.64,9.8 1.61,-2.69 1.64,7.61 1.64,-7.11 1.6,7.11 1.64,-3 3.24,0.27 1.6,3.83 1.64,-3.28 1.64,0.54 1.61,-12.54 1.64,14.46 1.6,-3.83 1.64,2.73 1.64,-5.47 1.6,3.83 3.24,0.82 1.64,-11.99 1.6,10.08 1.65,-4.38 1.64,4.65 1.6,-0.54 3.24,2.73 1.64,0.55 3.24,-2.74 1.64,3.83 1.6,-6.29 1.65,0.27 1.6,4.11 1.64,-4.93 1.6,-1.09 1.64,1.91 1.6,-7.89 3.28,12 3.24,2.18 1.65,-1.64 1.6,1.37 1.64,-3.55 1.6,-10.9 3.24,12.81 1.64,1.37 1.6,-4.38 1.64,3.56 1.64,-12.27 1.61,10.63 1.64,3.28 3.24,0.54 1.6,-3.28 1.64,3.01 1.64,-1.91 1.6,4.1 1.64,-6.29 1.61,1.37 1.64,4.1 1.64,-15 3.24,15 3.24,-9.3 1.6,9.3 1.64,-1.37 3.25,0.27 1.64,-5.74 3.24,6.29 3.24,-2.19 1.64,1.37 1.6,-5.47 1.64,7.66 h 1.61 l 1.64,-4.1 1.64,1.09 1.6,-15.82 1.64,18.01 3.24,-10.94 1.6,9.57 3.28,2.46 h 1.61 l 3.24,-3.55 1.64,1.09 1.64,3.28 h 1.6 l 1.64,-2.19 1.6,-5.46 3.24,6.56 1.65,-0.82 1.64,-6.02 3.24,5.47 1.6,-4.1 1.64,3.83 1.6,0.27 1.64,-1.37 1.6,3.01 h 1.64 l 1.65,-2.46 1.6,0.55 4.88,4.65 1.6,-11.76 1.64,10.94 1.64,-2.74 1.6,1.1 1.64,-6.29 3.25,8.47 1.64,-10.39 1.6,10.94 1.64,-2.73 h 1.6 l 1.64,-16.92 1.6,16.09 1.64,-0.82 1.64,1.65 1.61,-4.93 1.64,6.84 1.6,-1.37 1.64,1.1 1.64,-6.02 1.6,5.47 1.64,-2.19 1.6,3.28 1.64,-4.92 1.61,2.19 1.64,-17.74 1.64,20.75 1.6,-3.01 1.64,4.37 1.6,-8.75 3.24,6.84 1.64,0.27 1.64,-2.18 1.61,1.64 1.64,-5.2 1.6,6.02 1.64,0.27 1.64,-1.91 1.6,1.64 1.64,-0.28 1.6,-2.18 1.64,3 3.25,-6.29 1.64,2.46 1.6,5.2 1.64,-7.93 3.24,6.56 1.6,-6.29 1.64,5.75 1.6,-3.29 1.64,5.47 1.65,-6.29 1.6,4.65 4.88,0.55 1.6,-3.01 1.64,-0.27 1.64,3.83 1.6,-15.32 1.64,15.04 h 3.25 l 1.64,2.19 1.6,-1.91 1.64,-4.38 1.6,-0.82 1.64,0.55 1.6,4.1 h 1.64 l 1.64,-1.64 1.61,1.91 1.64,-0.27 1.6,3.28 1.64,-4.1 4.88,4.92 1.6,-4.37 1.64,0.27 1.61,-8.2 1.64,10.11 1.64,-10.93 1.6,11.75 1.64,1.64 3.24,-3 1.6,0.27 1.64,-10.66 1.64,13.12 1.61,-3.28 1.64,-0.55 1.6,-6.56 1.64,9.84 1.64,-6.01 1.6,5.47 1.64,-3.56 1.6,-0.27 3.25,3.28 1.64,0.27 1.64,-1.09 3.24,2.19 1.6,-6.84 1.64,4.65 1.6,0.27 1.64,1.92 h 1.64 l 1.61,-3.01 1.64,-0.55 3.24,4.38 1.64,0.82 3.24,-1.64 1.6,0.82 1.64,-11.76 3.25,11.48 1.64,-3.82 1.6,3 1.64,-0.54 1.6,2.73 1.64,0.55 1.6,-3.83 1.64,-0.82 1.6,4.1 1.64,0.55 1.65,-5.74 1.6,-1.1 1.64,6.57 1.6,-3.83 1.64,4.37 1.6,-2.73 3.28,3.01 1.6,-10.12 1.64,9.57 1.61,-0.27 1.64,-4.93 3.24,3.56 1.64,-2.19 1.6,4.1 1.64,-2.46 1.6,2.74 1.64,-2.19 h 1.64 l 3.25,-4.65 4.88,6.56 3.24,-6.29 1.6,7.39 1.64,-5.2 1.61,4.38 3.28,0.82 1.6,-0.82 1.64,-3.56 1.6,4.61 1.64,-0.23 1.6,-1.92 1.64,2.74 1.64,-0.82 3.25,-4.93 1.6,4.93 3.28,-5.47 1.6,4.37 1.64,-1.09 1.6,1.37 6.53,-1.92 1.6,2.19 1.64,-2.46 1.6,1.64 1.64,-2.19 1.6,3.56 1.64,-3.01 1.6,4.33 1.64,-1.87 1.65,2.97 3.24,-4.34 3.24,-0.54 1.6,5.15 1.64,-0.27 1.64,-1.92 1.6,2.46 1.64,-5.7 1.61,2.97 1.64,-0.23 1.64,2.96 1.6,-4.88 1.64,6.25 6.48,-3.51 1.64,1.6 1.61,-1.37 3.24,2.74 1.64,-5.71 1.6,6.25 1.64,-2.19 1.64,-5.43 1.6,7.35 1.64,-2.74 1.61,2.74 1.64,-1.64 3.24,1.91 1.64,-1.37 1.6,1.65 1.64,-2.74 1.6,3.01 1.64,-0.55 1.64,-2.19 1.61,2.47 1.64,-5.16 1.6,5.98 3.28,-2.74 1.6,2.46 3.24,-1.64 1.64,1.92 1.61,-0.55 1.64,-4.88 1.64,-0.32 3.24,1.37 1.6,5.2 1.64,-1.92 3.24,1.1 1.64,-2.19 1.61,1.91 1.64,-4.1 1.6,4.92 1.64,-6.79 1.64,5.15 1.6,-4.1 1.64,6.29 1.6,-8.71 3.24,7.34 1.65,-2.73 1.64,3.28 1.6,0.55 3.24,-4.11 1.64,5.75 1.6,-3.01 1.64,1.91 1.6,-1.09 1.64,1.37 1.65,-0.28 1.6,-3.28 3.24,2.46 1.64,-0.54 3.24,-3.56 1.64,1.92 1.6,4.1 3.25,-1.64 1.64,1.09 3.24,-4.1 1.64,4.37 1.6,-1.91 1.64,1.64 1.6,-0.82 1.64,2.46 1.64,-4.92 1.61,3.83 1.64,-2.74 3.24,2.74 1.64,-3.56 1.6,3.28 1.64,-1.36 1.6,-3.56 1.64,3.83 3.25,1.09 1.64,-3.55 3.24,3.01 1.6,1.64 1.64,-1.92 3.24,2.74 1.64,-7.39 1.61,8.21 1.64,-6.29 1.6,7.11 1.64,-4.1 1.64,2.18 3.24,-1.64 1.6,-0.82 1.64,1.1 1.6,-4.93 h 3.29 l 3.24,5.2 1.6,1.37 1.64,-0.82 1.6,1.64 1.64,-1.92 1.6,1.37 1.64,-0.27 1.65,-4.65 3.24,6.29 3.24,-1.64 6.48,1.91 1.64,-3.28 3.25,2.19 4.88,-0.55 1.6,1.64 1.64,-0.27 1.6,-1.92 1.64,2.74 3.25,-2.19 3.24,1.64 3.24,-2.19 1.64,1.64 h 1.64 l 1.6,-1.91 1.64,2.73 1.61,-7.38 1.64,7.38 3.24,1.92 1.64,-6.84 3.24,5.47 14.61,0.82 1.64,1.1 4.85,-10.12 1.64,8.48 1.64,-0.83 1.6,1.1 1.64,-8.48 1.6,7.93 1.64,-1.09 3.24,2.19 h 3.25 l 1.64,1.91 3.24,-2.46 3.24,0.27 3.24,-1.91 1.64,2.73 3.25,0.28 3.24,-2.19 3.24,1.91 3.24,-0.54 1.64,1.09 1.6,-0.55 1.64,0.82 1.65,-2.18 1.6,2.18 3.24,-1.09 1.64,-6.84 1.6,8.48 h 1.64 l 1.64,-10.66 1.6,10.39 1.64,0.27 1.61,-1.37 1.64,-4.1 1.64,5.74 3.24,-0.82 3.24,-2.18 1.6,1.91 6.53,0.27 1.6,-1.91 1.64,-5.47 1.64,8.2 1.6,-1.91 4.88,1.64 1.61,2.46 1.64,-2.19 h 1.64 l 1.6,2.19 1.64,-3.01 3.24,0.55 4.88,1.09 1.61,-7.11 1.64,7.66 1.6,0.55 1.64,-1.64 9.72,2.73 1.65,-2.19 4.88,-0.27 1.6,-1.37 1.64,1.92 1.6,-1.64 1.64,3 3.24,0.82 1.65,-2.73 1.6,0.82 1.64,-0.55 1.6,-10.93 1.64,10.93 1.6,0.82 1.64,3.01 1.64,-2.73 1.6,-0.55 1.64,-2.19 3.25,3.28 3.24,-0.54 1.64,3.28 3.24,-4.1 1.6,1.09 1.64,3.56 4.89,-3.29 1.6,-6.29 1.64,8.48 1.6,-2.19 1.64,3.29 3.24,-3.56 1.64,0.27 3.25,-5.19 1.64,7.93 1.6,-1.92 3.24,0.55 1.64,-2.19 3.24,6.02 1.64,-4.92 3.25,1.36 1.6,-2.18 4.88,2.46 1.64,-0.28 1.6,1.1 1.64,-1.64 3.25,1.09 1.64,1.92 3.24,-1.92 1.6,-0.27 1.64,2.46 3.24,-3.01 1.6,4.61 1.65,-5.43 4.88,4.65 3.24,-3.28 1.64,2.69 1.6,-4.61 1.64,4.38 1.6,-1.37 1.65,2.97 4.88,-3.79 1.6,3.24 1.64,-2.14 9.73,-0.55 1.64,3.01 1.6,-1.64 1.64,1.87 1.6,-1.87 h 1.64 l 1.64,1.64 1.6,-0.82 1.64,-7.11 1.61,8.43 1.64,-3.51 4.88,4.06 1.6,0.27 1.64,-1.87 3.24,-0.59 1.64,-1.6 1.61,0.55 1.64,2.19 3.24,-1.14 3.24,3.01 1.64,-2.69 1.6,2.69 3.25,-2.19 1.64,2.46 1.64,-3.51 1.6,1.37 3.24,0.23 1.64,0.59 1.6,-1.96 1.64,1.14 1.6,-1.14 1.65,1.64 3.24,-0.27 1.64,-1.87 1.64,2.14 1.6,-1.87 1.64,1.37 1.6,3.24 1.64,-2.74 3.25,-1.64 1.64,-3.51 1.6,8.16 3.24,-3.28 1.64,0.59 1.6,-1.96 3.24,5.47 1.64,-3.83 3.25,3.83 1.64,-7.89 1.6,4.38 3.24,0.23 1.64,-1.87 3.24,5.15 1.64,-2.73 1.61,0.27 1.64,-1.05 4.88,2.69 3.24,-2.19 1.6,3.01 6.53,-2.46 1.6,-2.19 1.64,3.56 1.6,-0.55 1.64,-6.25 1.64,4.88 1.6,1.37 1.64,-1.09 1.61,-4.34 1.64,4.88 3.24,0.82 1.64,3.83 1.6,-3.55 1.64,-0.82 1.6,4.37 1.64,-4.92 1.64,1.92 1.61,-0.55 1.64,0.82 1.6,-0.55 1.64,-2.46 1.64,1.91 1.6,-2.46 3.24,4.38 1.64,2.19 1.61,-3.83 3.28,3.55 1.6,-1.64 4.88,-1.09 1.6,-1.1 1.64,0.55 1.6,3.56 1.65,-4.93 1.64,5.47 1.6,-3.82 3.28,2.46 1.6,-2.74 1.64,3.01 1.6,-3.56 1.64,5.47 1.6,-0.54 1.65,-3.83 1.6,-0.27 1.64,3.82 1.64,-3.82 1.6,2.46 1.64,-8.99 1.6,7.62 4.88,0.27 1.65,-8.98 3.24,8.98 1.6,0.55 1.64,-0.82 1.6,3.01 1.64,-2.46 1.64,3.28 3.24,-2.74 1.61,-0.27 1.64,-3.83 1.64,6.84 1.6,-3.01 1.64,1.91 3.24,-5.74 1.6,3.83 1.64,0.27 1.64,3.56 1.61,-0.55 3.24,-3.55 1.64,1.09 1.64,-4.65 1.6,7.38 3.24,-3 1.64,1.64 1.61,-1.92 3.28,3.56 1.6,-3.28 1.64,0.27 1.6,-5.47 1.64,7.66 1.6,1.91 3.24,-3.83 4.89,0.82 1.64,3.28 1.64,-0.82 1.6,-2.46 3.24,1.64 1.64,0.82 1.6,-3 1.65,0.54 1.64,-1.09 4.84,3.55 1.64,-2.18 3.24,2.46 1.6,-5.74 1.64,6.01 4.89,-2.46 1.6,-4.92 3.24,5.74 1.64,-1.64 1.64,4.37 1.6,-3.82 3.25,3.55 1.64,-0.27 1.64,-2.46 3.24,3.83 1.6,-4.11 3.24,2.19 3.28,-5.74 1.61,7.38 4.88,-1.64 1.6,1.92 1.64,-1.65 1.64,1.37 1.6,-3.28 1.64,1.37 1.61,-2.19 1.64,4.1 4.88,0.28 1.6,-2.74 3.24,0.82 1.64,2.19 1.64,0.27 1.61,-2.46 1.64,2.46 3.24,-3.55 1.64,2.73 1.6,-0.27 1.64,1.09 3.24,-6.83 1.61,5.74 1.64,1.64 1.64,-2.46 1.6,-7.11 1.64,8.75 1.6,1.37 1.64,-2.74 1.6,2.46 1.64,-6.29 1.6,4.38 1.65,-0.82 1.64,1.64 1.6,-0.55 4.88,1.92 1.6,-1.37 1.64,0.27 1.64,-1.09 1.6,1.37 1.65,-0.55 1.6,-8.75 1.64,9.3 1.64,0.54 1.6,-1.09 1.64,0.82 1.6,-1.09 1.64,1.91 4.89,-1.37 1.6,1.64 8.12,-0.27 1.64,-1.91 1.6,1.91 1.64,-0.55 1.61,1.37 1.64,-1.91 1.64,1.91 1.6,-1.64 h 1.64 l 1.6,1.64 1.64,-1.64 3.24,1.37 3.25,-1.1 1.64,0.28 1.6,-3.29 1.64,3.83 1.64,-0.27 1.6,1.64 3.24,-4.65 3.25,4.1 3.28,0.55 1.6,0.27 1.64,-3.55 1.6,3.01 1.64,-0.28 1.6,1.1 1.64,-1.64 1.6,1.36 1.65,-1.91 1.64,2.19 1.6,-1.1 1.64,0.82 3.24,-2.18 3.24,3 6.49,-0.54 1.64,0.82 1.64,-1.92 1.6,-4.1 1.64,4.92 1.6,-0.27 1.64,1.37 1.6,-1.92 4.89,3.01 1.64,-1.64 1.6,1.91 1.64,-0.82 1.6,-8.75 1.64,9.03 1.64,-6.57 1.6,6.57 3.25,-2.19 1.64,-1.64 1.64,-7.38 3.24,10.11 1.6,1.64 1.64,-1.36 3.24,-0.55 1.64,2.73 h 1.61 l 3.24,-3.55 1.64,1.64 1.6,-2.73 1.64,3.28 1.64,-0.28 1.6,1.64 1.64,-1.36 4.89,0.54 3.24,-1.64 3.24,3.01 3.24,-2.73 1.61,1.91 6.52,0.27 1.64,-6.01 1.6,5.19 1.64,1.1 1.6,-2.46 1.64,3 4.89,0.55 1.6,0.82 1.64,-2.19 1.6,0.28 1.64,-9.03 1.6,10.12 1.64,-3.83 6.49,4.38 1.64,-3.01 1.64,3.01 3.2,-2.19 h 1.64 l 1.64,-1.91 1.6,2.73 3.25,1.1 1.64,-1.65 3.24,1.1 h 1.64 l 1.6,1.37 1.64,-1.65 1.6,2.74 4.89,-3.56 4.88,1.37 1.6,-0.55 1.64,1.92 1.64,-9.02 1.6,-0.55 1.64,8.48 4.89,1.09 1.6,0.55 1.64,-1.64 1.6,2.14 1.64,-2.14 1.6,0.82 1.64,-2.19 1.64,-6.02 1.61,6.56 3.24,3.29 1.64,-3.83 3.24,3.51 1.64,1.14 3.24,-1.96 4.89,0.82 1.6,-2.14 3.24,2.69 3.24,-7.89 1.64,8.16 1.6,1.64 1.65,-4.33 1.64,0.82 1.6,-0.55 1.64,2.74 1.64,0.23 1.6,-2.19 4.88,0.59 3.25,0.55 1.6,0.5 1.64,-4.33 1.64,4.06 1.6,-0.78 1.64,2.15 1.6,-1.92 4.88,3.56 3.25,-3.24 1.64,1.05 3.24,-3.24 4.88,2.69 1.6,-1.32 1.64,2.96 4.89,-2.14 1.6,-1.64 1.64,5.43 3.24,-3.56 1.6,1.64 1.64,-1.05 1.64,1.32 1.61,-0.82 1.64,2.47 1.6,-4.11 3.24,1.37 1.64,-1.05 4.88,2.14 1.61,-1.32 1.64,2.42 1.64,-4.06 1.6,5.7 1.64,-0.82 3.24,-3.56 3.24,1.92 1.61,-2.19 1.64,-0.23 3.24,3.79 1.64,-1.1 1.64,1.1 1.6,-3.29 1.64,-0.5 1.6,2.69 1.64,-0.82 1.61,1.92 3.28,-3.56 1.6,4.65 1.64,-2.46 1.6,0.27 1.64,-2.19 1.6,3.83 1.64,-2.46 1.6,1.64 1.65,-2.69 1.64,4.06 1.6,-4.06 4.88,2.97 3.24,-4.61 3.24,6.52 3.25,-9.53 1.64,5.15 4.88,2.47 1.6,-2.47 1.64,0.28 3.24,2.73 6.49,-2.19 1.64,1.92 1.6,-1.92 3.28,2.74 h 3.24 l 1.61,1.64 1.64,-0.82 1.64,-3.83 1.6,3.83 1.64,-3.56 1.6,4.11 1.64,0.54 1.6,-2.18 1.64,0.54 1.64,-2.73 1.61,2.46 1.64,-1.09 3.24,1.36 6.48,-0.82 3.25,2.19 3.28,-3.83 1.6,4.1 1.64,-1.09 1.6,1.37 1.64,-4.11 3.24,3.56 1.6,-1.64 4.89,1.64 1.64,-4.38 1.64,3.56 1.6,-2.46 h 1.6 l 1.64,3.28 1.64,-3.83 3.25,5.2 1.6,-0.55 1.64,-4.92 1.64,0.27 1.6,4.38 h 1.64 l 1.6,1.36 1.64,-1.09 1.6,1.64 1.64,-0.27 1.65,-1.64 3.24,-0.55 1.6,-2.46 1.64,4.92 h 1.6 l 3.28,-4.65 1.6,2.46 1.64,-2.18 1.61,3 1.64,-0.54 1.64,2.18 1.6,-11.44 1.64,8.98 1.6,0.28 1.64,-1.92 1.6,2.74 1.64,-1.64 6.49,2.73 1.64,-4.1 3.24,4.92 3.24,-4.65 1.64,4.38 1.61,-5.2 3.28,1.37 3.24,-1.09 1.6,3.82 1.64,-0.54 3.24,-3.01 1.61,4.65 4.88,0.27 1.64,-1.91 1.64,4.1 1.6,-4.38 1.64,2.46 1.6,-1.91 1.64,2.19 1.61,-1.64 1.64,1.91 h 1.6 l 1.64,-7.93 1.64,7.38 3.24,-5.19 1.6,5.47 1.64,0.27 3.25,-5.47 1.64,5.74 1.6,-0.27 1.64,-1.64 1.64,2.46 1.6,-0.55 1.6,-4.92 3.28,5.47 1.6,-1.91 4.89,1.64 1.64,-1.37 1.6,1.64 3.24,-3.01 1.64,0.55 1.6,3.01 1.64,-4.1 1.65,3.55 1.6,-9.84 1.64,10.39 1.6,-4.1 1.64,4.65 1.6,-1.92 1.64,1.37 4.88,-4.92 3.25,5.19 1.64,0.55 1.6,-6.02 1.64,3.83 1.6,-4.65 1.64,7.11 4.85,0.55 1.64,-1.09 1.64,0.82 1.6,-1.92 1.64,1.64 3.24,-6.56 1.64,6.56 1.6,-1.64 1.64,2.19 h 1.61 l 1.64,-3.28 1.64,3.55 3.24,-7.11 3.24,7.11 1.6,-1.09 1.64,-4.65 1.6,5.2 1.65,-3.29 1.64,3.01 3.24,-3.01 1.64,1.1 3.2,-3.28 1.64,4.92 4.89,0.27 1.6,-2.73 1.64,1.36 1.64,3.56 1.6,-3.01 1.64,3.01 1.6,0.55 1.64,-4.93 1.6,4.93 3.29,-2.19 1.6,-5.47 1.64,6.84 1.6,-1.92 1.64,1.92 1.6,-4.38 1.64,4.92 1.64,-1.64 3.24,2.74 3.25,-3.28 1.64,-1.65 1.6,4.65 1.64,0.55 1.6,-5.47 1.64,1.1 1.6,3.28 1.64,-6.02 1.64,1.91 1.61,4.38 1.64,-0.55 1.6,1.1 1.64,-4.38 3.24,-0.27 3.24,4.92 1.64,-8.2 1.61,8.2 1.64,-5.74 1.64,5.47 1.6,-1.92 1.64,0.28 3.24,-5.47 1.6,-2.46 1.64,7.65 1.61,-2.46 1.64,5.47 1.64,-4.65 1.6,3.01 3.28,-1.37 1.6,1.92 1.64,-3.28 1.6,4.92 1.64,-4.38 1.61,1.92 3.24,-5.75 1.64,5.2 1.64,0.55 3.24,-3.28 1.6,1.91 1.64,-1.91 3.25,3 3.24,-0.82 1.64,2.46 3.24,-4.1 h 1.6 l 3.28,5.2 1.6,-1.64 1.65,1.91 1.6,-7.93 1.64,7.38 1.64,-4.37 1.6,1.64 1.64,-3.28 3.24,6.01 1.6,-4.92 3.29,5.74 1.6,-2.73 1.64,3.28 1.6,-8.48 1.64,8.21 1.6,0.27 1.64,-8.2 1.64,9.57 1.6,-1.92 1.64,-4.92 1.61,3.01 4.88,-3.01 1.64,1.37 1.6,5.47 4.88,-5.74 1.61,5.46 1.64,-6.01 1.64,4.1 1.6,0.82 3.28,-4.1 1.6,4.1 1.64,-3.28 1.6,3.55 1.64,-3 1.61,4.37 3.28,-8.75 1.6,1.92 1.64,4.92 1.6,-1.64 1.64,-6.02 1.6,8.2 1.64,-5.46 3.25,4.64 1.64,2.47 1.6,-1.65 1.64,1.92 1.64,-1.92 1.6,1.1 3.24,-0.82 3.24,0.27 1.65,-7.38 1.6,8.75 1.64,-4.92 1.64,-1.37 1.6,1.64 1.64,-4.1 1.6,9.57 1.64,-4.38 1.6,0.28 1.64,3.28 1.65,-1.92 1.6,1.1 1.64,-3.56 3.24,1.64 3.24,-3.28 1.64,3.56 1.6,-0.28 3.25,4.38 1.64,-2.19 1.64,-7.65 1.6,8.2 1.64,-2.19 1.6,-6.56 1.64,6.56 4.88,3.01 1.61,-6.02 1.64,1.37 1.6,-2.19 1.64,6.57 1.6,-3.29 1.64,4.93 1.64,-2.74 h 1.6 l 1.64,-4.92 1.61,0.55 1.64,7.34 1.64,-1.37 1.6,1.37 1.64,-3.24 1.6,1.37 1.64,-2.47 1.6,1.37 1.64,-7.93 1.61,10.67 1.64,1.32 1.64,-4.61 1.6,4.89 3.28,-5.43 1.6,2.69 1.6,-4.06 1.64,6.52 1.64,-8.71 1.61,5.75 6.52,3.78 4.84,-8.98 h 1.64 l 1.6,2.73 1.65,-3 1.64,5.97 h 3.24 l 1.6,-2.42"
             style="fill:none;stroke:#1f77b4;stroke-width:15;stroke-linecap:square;stroke-linejoin:round;stroke-miterlimit:10;stroke-dasharray:none;stroke-opacity:1"
             id="path424"
             inkscape:connector-curvature="0" /></g></g><g
         id="g426"><g
           id="g428"
           clip-path="url(#clipPath432)"><path
             d="M 581.988,382.148 V 3043.28"
             style="fill:none;stroke:#000000;stroke-width:8;stroke-linecap:square;stroke-linejoin:miter;stroke-miterlimit:10;stroke-dasharray:none;stroke-opacity:1"
             id="path434"
             inkscape:connector-curvature="0" /><path
             d="M 4153.2,382.148 V 3043.28"
             style="fill:none;stroke:#000000;stroke-width:8;stroke-linecap:square;stroke-linejoin:miter;stroke-miterlimit:10;stroke-dasharray:none;stroke-opacity:1"
             id="path436"
             inkscape:connector-curvature="0" /><path
             d="M 581.988,382.148 H 4153.2"
             style="fill:none;stroke:#000000;stroke-width:8;stroke-linecap:square;stroke-linejoin:miter;stroke-miterlimit:10;stroke-dasharray:none;stroke-opacity:1"
             id="path438"
             inkscape:connector-curvature="0" /><path
             d="M 581.988,3043.28 H 4153.2"
             style="fill:none;stroke:#000000;stroke-width:8;stroke-linecap:square;stroke-linejoin:miter;stroke-miterlimit:10;stroke-dasharray:none;stroke-opacity:1"
             id="path440"
             inkscape:connector-curvature="0" /></g></g></g><rect
       style="opacity:1;fill:#ffffff;fill-opacity:1;fill-rule:nonzero;stroke:none;stroke-width:9.07086658;stroke-miterlimit:4;stroke-dasharray:none;stroke-opacity:1"
       id="rect1247"
       width="43.932007"
       height="13.954873"
       x="217.59264"
       y="-19.123348"
       transform="scale(1,-1)"
       rx="74.551208"
       ry="0.75761247" /><rect
       style="opacity:1;fill:#ffffff;fill-opacity:1;fill-rule:nonzero;stroke:none;stroke-width:9.07086658;stroke-miterlimit:4;stroke-dasharray:none;stroke-opacity:1"
       id="rect1249"
       width="16.022261"
       height="44.448853"
       x="3.1010828"
       y="-185.54813"
       transform="scale(1,-1)"
       rx="74.551208"
       ry="0.75761247" /><text
       xml:space="preserve"
       style="font-style:normal;font-weight:normal;font-size:13px;line-height:1.25;font-family:sans-serif;letter-spacing:0px;word-spacing:0px;fill:#000000;fill-opacity:1;stroke:none;stroke-width:0.75"
       x="220.39049"
       y="-7.4380198"
       id="text1253"
       transform="scale(1,-1)"><tspan
         sodipodi:role="line"
         id="tspan1251"
         x="220.39049"
         y="-7.4380198"
         style="font-size:13px;stroke-width:0.75">Epoch</tspan></text>
<text
       xml:space="preserve"
       style="font-style:normal;font-weight:normal;font-size:12.99999905px;line-height:1.25;font-family:sans-serif;letter-spacing:0px;word-spacing:0px;fill:#000000;fill-opacity:1;stroke:none;stroke-width:0.75"
       x="138.87157"
       y="16.056467"
       id="text1253-3"
       transform="matrix(0,1,1,0,0,0)"><tspan
         sodipodi:role="line"
         id="tspan1251-0"
         x="138.87157"
         y="16.056467"
         style="font-size:12.99999905px;stroke-width:0.75">Correct</tspan></text>
</g></svg>