<?xml version="1.0" encoding="UTF-8" standalone="no"?>
<!-- Created with Inkscape (http://www.inkscape.org/) -->

<svg
   xmlns:dc="http://purl.org/dc/elements/1.1/"
   xmlns:cc="http://creativecommons.org/ns#"
   xmlns:rdf="http://www.w3.org/1999/02/22-rdf-syntax-ns#"
   xmlns:svg="http://www.w3.org/2000/svg"
   xmlns="http://www.w3.org/2000/svg"
   xmlns:sodipodi="http://sodipodi.sourceforge.net/DTD/sodipodi-0.dtd"
   xmlns:inkscape="http://www.inkscape.org/namespaces/inkscape"
   version="1.1"
   id="svg2"
   xml:space="preserve"
   width="614.66669"
   height="460"
   viewBox="0 0 614.66669 460"
   sodipodi:docname="rmse_curvesinsqr128_32i_l_hilsinsqr128_32i_l2_hil_num_neuron64_ramdomselected_timesequence_epoch2000_batchsize128_mask10_eta30_transition0_loopnum9.svg"
   inkscape:version="0.92.4 (5da689c313, 2019-01-14)"><metadata
     id="metadata8"><rdf:RDF><cc:Work
         rdf:about=""><dc:format>image/svg+xml</dc:format><dc:type
           rdf:resource="http://purl.org/dc/dcmitype/StillImage" /><dc:title></dc:title></cc:Work></rdf:RDF></metadata><defs
     id="defs6"><clipPath
       clipPathUnits="userSpaceOnUse"
       id="clipPath20"><path
         d="M 6,2 V 3450 H 4610 V 2 Z"
         id="path18"
         inkscape:connector-curvature="0" /></clipPath><clipPath
       clipPathUnits="userSpaceOnUse"
       id="clipPath32"><path
         d="m 582,382.199 h 3571 v 2661 H 582 Z"
         id="path30"
         inkscape:connector-curvature="0" /></clipPath><clipPath
       clipPathUnits="userSpaceOnUse"
       id="clipPath42"><path
         d="M 6,2 V 3450 H 4610 V 2 Z"
         id="path40"
         inkscape:connector-curvature="0" /></clipPath><clipPath
       clipPathUnits="userSpaceOnUse"
       id="clipPath60"><path
         d="m 582,382.199 h 3571 v 2661 H 582 Z"
         id="path58"
         inkscape:connector-curvature="0" /></clipPath><clipPath
       clipPathUnits="userSpaceOnUse"
       id="clipPath70"><path
         d="M 6,2 V 3450 H 4610 V 2 Z"
         id="path68"
         inkscape:connector-curvature="0" /></clipPath><clipPath
       clipPathUnits="userSpaceOnUse"
       id="clipPath88"><path
         d="m 582,382.199 h 3571 v 2661 H 582 Z"
         id="path86"
         inkscape:connector-curvature="0" /></clipPath><clipPath
       clipPathUnits="userSpaceOnUse"
       id="clipPath98"><path
         d="M 6,2 V 3450 H 4610 V 2 Z"
         id="path96"
         inkscape:connector-curvature="0" /></clipPath><clipPath
       clipPathUnits="userSpaceOnUse"
       id="clipPath116"><path
         d="m 582,382.199 h 3571 v 2661 H 582 Z"
         id="path114"
         inkscape:connector-curvature="0" /></clipPath><clipPath
       clipPathUnits="userSpaceOnUse"
       id="clipPath126"><path
         d="M 6,2 V 3450 H 4610 V 2 Z"
         id="path124"
         inkscape:connector-curvature="0" /></clipPath><clipPath
       clipPathUnits="userSpaceOnUse"
       id="clipPath144"><path
         d="m 582,382.199 h 3571 v 2661 H 582 Z"
         id="path142"
         inkscape:connector-curvature="0" /></clipPath><clipPath
       clipPathUnits="userSpaceOnUse"
       id="clipPath154"><path
         d="M 6,2 V 3450 H 4610 V 2 Z"
         id="path152"
         inkscape:connector-curvature="0" /></clipPath><clipPath
       clipPathUnits="userSpaceOnUse"
       id="clipPath172"><path
         d="m 582,382.199 h 3571 v 2661 H 582 Z"
         id="path170"
         inkscape:connector-curvature="0" /></clipPath><clipPath
       clipPathUnits="userSpaceOnUse"
       id="clipPath182"><path
         d="M 6,2 V 3450 H 4610 V 2 Z"
         id="path180"
         inkscape:connector-curvature="0" /></clipPath><clipPath
       clipPathUnits="userSpaceOnUse"
       id="clipPath200"><path
         d="m 582,382.199 h 3571 v 2661 H 582 Z"
         id="path198"
         inkscape:connector-curvature="0" /></clipPath><clipPath
       clipPathUnits="userSpaceOnUse"
       id="clipPath210"><path
         d="M 6,2 V 3450 H 4610 V 2 Z"
         id="path208"
         inkscape:connector-curvature="0" /></clipPath><clipPath
       clipPathUnits="userSpaceOnUse"
       id="clipPath228"><path
         d="m 582,382.199 h 3571 v 2661 H 582 Z"
         id="path226"
         inkscape:connector-curvature="0" /></clipPath><clipPath
       clipPathUnits="userSpaceOnUse"
       id="clipPath238"><path
         d="M 6,2 V 3450 H 4610 V 2 Z"
         id="path236"
         inkscape:connector-curvature="0" /></clipPath><clipPath
       clipPathUnits="userSpaceOnUse"
       id="clipPath256"><path
         d="m 582,382.199 h 3571 v 2661 H 582 Z"
         id="path254"
         inkscape:connector-curvature="0" /></clipPath><clipPath
       clipPathUnits="userSpaceOnUse"
       id="clipPath266"><path
         d="M 6,2 V 3450 H 4610 V 2 Z"
         id="path264"
         inkscape:connector-curvature="0" /></clipPath><clipPath
       clipPathUnits="userSpaceOnUse"
       id="clipPath286"><path
         d="m 582,382.199 h 3571 v 2661 H 582 Z"
         id="path284"
         inkscape:connector-curvature="0" /></clipPath><clipPath
       clipPathUnits="userSpaceOnUse"
       id="clipPath296"><path
         d="M 6,2 V 3450 H 4610 V 2 Z"
         id="path294"
         inkscape:connector-curvature="0" /></clipPath><clipPath
       clipPathUnits="userSpaceOnUse"
       id="clipPath314"><path
         d="m 582,382.199 h 3571 v 2661 H 582 Z"
         id="path312"
         inkscape:connector-curvature="0" /></clipPath><clipPath
       clipPathUnits="userSpaceOnUse"
       id="clipPath324"><path
         d="M 6,2 V 3450 H 4610 V 2 Z"
         id="path322"
         inkscape:connector-curvature="0" /></clipPath><clipPath
       clipPathUnits="userSpaceOnUse"
       id="clipPath342"><path
         d="m 582,382.199 h 3571 v 2661 H 582 Z"
         id="path340"
         inkscape:connector-curvature="0" /></clipPath><clipPath
       clipPathUnits="userSpaceOnUse"
       id="clipPath352"><path
         d="M 6,2 V 3450 H 4610 V 2 Z"
         id="path350"
         inkscape:connector-curvature="0" /></clipPath><clipPath
       clipPathUnits="userSpaceOnUse"
       id="clipPath370"><path
         d="m 582,382.199 h 3571 v 2661 H 582 Z"
         id="path368"
         inkscape:connector-curvature="0" /></clipPath><clipPath
       clipPathUnits="userSpaceOnUse"
       id="clipPath380"><path
         d="M 6,2 V 3450 H 4610 V 2 Z"
         id="path378"
         inkscape:connector-curvature="0" /></clipPath><clipPath
       clipPathUnits="userSpaceOnUse"
       id="clipPath398"><path
         d="m 582,382.199 h 3571 v 2661 H 582 Z"
         id="path396"
         inkscape:connector-curvature="0" /></clipPath><clipPath
       clipPathUnits="userSpaceOnUse"
       id="clipPath408"><path
         d="M 6,2 V 3450 H 4610 V 2 Z"
         id="path406"
         inkscape:connector-curvature="0" /></clipPath><clipPath
       clipPathUnits="userSpaceOnUse"
       id="clipPath426"><path
         d="m 582,382.199 h 3571 v 2661 H 582 Z"
         id="path424"
         inkscape:connector-curvature="0" /></clipPath><clipPath
       clipPathUnits="userSpaceOnUse"
       id="clipPath436"><path
         d="M 6,2 V 3450 H 4610 V 2 Z"
         id="path434"
         inkscape:connector-curvature="0" /></clipPath><clipPath
       clipPathUnits="userSpaceOnUse"
       id="clipPath454"><path
         d="m 582,382.199 h 3571 v 2661 H 582 Z"
         id="path452"
         inkscape:connector-curvature="0" /></clipPath><clipPath
       clipPathUnits="userSpaceOnUse"
       id="clipPath464"><path
         d="M 6,2 V 3450 H 4610 V 2 Z"
         id="path462"
         inkscape:connector-curvature="0" /></clipPath><clipPath
       clipPathUnits="userSpaceOnUse"
       id="clipPath486"><path
         d="m 582,382.199 h 3571 v 2661 H 582 Z"
         id="path484"
         inkscape:connector-curvature="0" /></clipPath><clipPath
       clipPathUnits="userSpaceOnUse"
       id="clipPath496"><path
         d="M 6,2 V 3450 H 4610 V 2 Z"
         id="path494"
         inkscape:connector-curvature="0" /></clipPath><filter
       inkscape:collect="always"
       style="color-interpolation-filters:sRGB"
       id="filter4253"
       x="-0.08254569"
       width="1.1650914"
       y="-0.0230197"
       height="1.0460394"><feGaussianBlur
         inkscape:collect="always"
         stdDeviation="3.3687012"
         id="feGaussianBlur4255" /></filter></defs><sodipodi:namedview
     pagecolor="#ffffff"
     bordercolor="#666666"
     borderopacity="1"
     objecttolerance="10"
     gridtolerance="10"
     guidetolerance="10"
     inkscape:pageopacity="0"
     inkscape:pageshadow="2"
     inkscape:window-width="1920"
     inkscape:window-height="1017"
     id="namedview4"
     showgrid="false"
     inkscape:zoom="1.026087"
     inkscape:cx="450.16195"
     inkscape:cy="139.32468"
     inkscape:window-x="1272"
     inkscape:window-y="-8"
     inkscape:window-maximized="1"
     inkscape:current-layer="g12" /><g
     id="g10"
     inkscape:groupmode="layer"
     inkscape:label="ink_ext_XXXXXX"
     transform="matrix(1.3333333,0,0,-1.3333333,0,460)"><g
       id="g12"
       transform="matrix(0.1,0,0,0.1,1.4618644,-1.4618644)"><g
         id="g14"><g
           id="g16"
           clip-path="url(#clipPath20)"><path
             d="M 6,2 H 4614 V 3458 H 6 Z"
             style="fill:#ffffff;fill-opacity:1;fill-rule:nonzero;stroke:none"
             id="path22"
             inkscape:connector-curvature="0" /><path
             d="M 582,382.16 H 4153.2 V 3043.28 H 582 Z"
             style="fill:#ffffff;fill-opacity:1;fill-rule:nonzero;stroke:none"
             id="path24"
             inkscape:connector-curvature="0" /></g></g><g
         id="g26"><g
           id="g28"
           clip-path="url(#clipPath32)"><path
             d="M 744.328,382.16 V 3043.28"
             style="fill:none;stroke:#b0b0b0;stroke-width:8;stroke-linecap:square;stroke-linejoin:round;stroke-miterlimit:10;stroke-dasharray:none;stroke-opacity:1"
             id="path34"
             inkscape:connector-curvature="0" /></g></g><g
         id="g36"><g
           id="g38"
           clip-path="url(#clipPath42)"><path
             d="m 744.328,382.16 v -35"
             style="fill:#000000;fill-opacity:1;fill-rule:nonzero;stroke:none"
             id="path44"
             inkscape:connector-curvature="0" /><path
             d="m 744.328,382.16 v -35"
             style="fill:none;stroke:#000000;stroke-width:8;stroke-linecap:butt;stroke-linejoin:round;stroke-miterlimit:10;stroke-dasharray:none;stroke-opacity:1"
             id="path46"
             inkscape:connector-curvature="0" /><g
             id="g48"
             transform="scale(10)"><text
               transform="matrix(1,0,0,-1,71.2531,23.6223)"
               style="font-variant:normal;font-weight:normal;font-size:10px;font-family:Arial;-inkscape-font-specification:Arial;writing-mode:lr-tb;fill:#000000;fill-opacity:1;fill-rule:nonzero;stroke:none"
               id="text52"><tspan
                 x="0"
                 y="0"
                 id="tspan50">0</tspan></text>
</g></g></g><g
         id="g54"><g
           id="g56"
           clip-path="url(#clipPath60)"><path
             d="M 1150.35,382.16 V 3043.28"
             style="fill:none;stroke:#b0b0b0;stroke-width:8;stroke-linecap:square;stroke-linejoin:round;stroke-miterlimit:10;stroke-dasharray:none;stroke-opacity:1"
             id="path62"
             inkscape:connector-curvature="0" /></g></g><g
         id="g64"><g
           id="g66"
           clip-path="url(#clipPath70)"><path
             d="m 1150.35,382.16 v -35"
             style="fill:#000000;fill-opacity:1;fill-rule:nonzero;stroke:none"
             id="path72"
             inkscape:connector-curvature="0" /><path
             d="m 1150.35,382.16 v -35"
             style="fill:none;stroke:#000000;stroke-width:8;stroke-linecap:butt;stroke-linejoin:round;stroke-miterlimit:10;stroke-dasharray:none;stroke-opacity:1"
             id="path74"
             inkscape:connector-curvature="0" /><g
             id="g76"
             transform="scale(10)"><text
               transform="matrix(1,0,0,-1,105.496,23.6223)"
               style="font-variant:normal;font-weight:normal;font-size:10px;font-family:Arial;-inkscape-font-specification:Arial;writing-mode:lr-tb;fill:#000000;fill-opacity:1;fill-rule:nonzero;stroke:none"
               id="text80"><tspan
                 x="0 6.3625026 12.724614"
                 y="0"
                 sodipodi:role="line"
                 id="tspan78">250</tspan></text>
</g></g></g><g
         id="g82"><g
           id="g84"
           clip-path="url(#clipPath88)"><path
             d="M 1556.37,382.16 V 3043.28"
             style="fill:none;stroke:#b0b0b0;stroke-width:8;stroke-linecap:square;stroke-linejoin:round;stroke-miterlimit:10;stroke-dasharray:none;stroke-opacity:1"
             id="path90"
             inkscape:connector-curvature="0" /></g></g><g
         id="g92"><g
           id="g94"
           clip-path="url(#clipPath98)"><path
             d="m 1556.37,382.16 v -35"
             style="fill:#000000;fill-opacity:1;fill-rule:nonzero;stroke:none"
             id="path100"
             inkscape:connector-curvature="0" /><path
             d="m 1556.37,382.16 v -35"
             style="fill:none;stroke:#000000;stroke-width:8;stroke-linecap:butt;stroke-linejoin:round;stroke-miterlimit:10;stroke-dasharray:none;stroke-opacity:1"
             id="path102"
             inkscape:connector-curvature="0" /><g
             id="g104"
             transform="scale(10)"><text
               transform="matrix(1,0,0,-1,146.098,23.6223)"
               style="font-variant:normal;font-weight:normal;font-size:10px;font-family:Arial;-inkscape-font-specification:Arial;writing-mode:lr-tb;fill:#000000;fill-opacity:1;fill-rule:nonzero;stroke:none"
               id="text108"><tspan
                 x="0 6.362112 12.724614"
                 y="0"
                 sodipodi:role="line"
                 id="tspan106">500</tspan></text>
</g></g></g><g
         id="g110"><g
           id="g112"
           clip-path="url(#clipPath116)"><path
             d="M 1962.39,382.16 V 3043.28"
             style="fill:none;stroke:#b0b0b0;stroke-width:8;stroke-linecap:square;stroke-linejoin:round;stroke-miterlimit:10;stroke-dasharray:none;stroke-opacity:1"
             id="path118"
             inkscape:connector-curvature="0" /></g></g><g
         id="g120"><g
           id="g122"
           clip-path="url(#clipPath126)"><path
             d="m 1962.39,382.16 v -35"
             style="fill:#000000;fill-opacity:1;fill-rule:nonzero;stroke:none"
             id="path128"
             inkscape:connector-curvature="0" /><path
             d="m 1962.39,382.16 v -35"
             style="fill:none;stroke:#000000;stroke-width:8;stroke-linecap:butt;stroke-linejoin:round;stroke-miterlimit:10;stroke-dasharray:none;stroke-opacity:1"
             id="path130"
             inkscape:connector-curvature="0" /><g
             id="g132"
             transform="scale(10)"><text
               transform="matrix(1,0,0,-1,186.7,23.6223)"
               style="font-variant:normal;font-weight:normal;font-size:10px;font-family:Arial;-inkscape-font-specification:Arial;writing-mode:lr-tb;fill:#000000;fill-opacity:1;fill-rule:nonzero;stroke:none"
               id="text136"><tspan
                 x="0 6.3625026 12.724614"
                 y="0"
                 sodipodi:role="line"
                 id="tspan134">750</tspan></text>
</g></g></g><g
         id="g138"><g
           id="g140"
           clip-path="url(#clipPath144)"><path
             d="M 2368.41,382.16 V 3043.28"
             style="fill:none;stroke:#b0b0b0;stroke-width:8;stroke-linecap:square;stroke-linejoin:round;stroke-miterlimit:10;stroke-dasharray:none;stroke-opacity:1"
             id="path146"
             inkscape:connector-curvature="0" /></g></g><g
         id="g148"><g
           id="g150"
           clip-path="url(#clipPath154)"><path
             d="m 2368.41,382.16 v -35"
             style="fill:#000000;fill-opacity:1;fill-rule:nonzero;stroke:none"
             id="path156"
             inkscape:connector-curvature="0" /><path
             d="m 2368.41,382.16 v -35"
             style="fill:none;stroke:#000000;stroke-width:8;stroke-linecap:butt;stroke-linejoin:round;stroke-miterlimit:10;stroke-dasharray:none;stroke-opacity:1"
             id="path158"
             inkscape:connector-curvature="0" /><g
             id="g160"
             transform="scale(10)"><text
               transform="matrix(1,0,0,-1,224.123,23.6223)"
               style="font-variant:normal;font-weight:normal;font-size:10px;font-family:Arial;-inkscape-font-specification:Arial;writing-mode:lr-tb;fill:#000000;fill-opacity:1;fill-rule:nonzero;stroke:none"
               id="text164"><tspan
                 x="0 6.3620996 12.72459 19.086689"
                 y="0"
                 sodipodi:role="line"
                 id="tspan162">1000</tspan></text>
</g></g></g><g
         id="g166"><g
           id="g168"
           clip-path="url(#clipPath172)"><path
             d="M 2774.43,382.16 V 3043.28"
             style="fill:none;stroke:#b0b0b0;stroke-width:8;stroke-linecap:square;stroke-linejoin:round;stroke-miterlimit:10;stroke-dasharray:none;stroke-opacity:1"
             id="path174"
             inkscape:connector-curvature="0" /></g></g><g
         id="g176"><g
           id="g178"
           clip-path="url(#clipPath182)"><path
             d="m 2774.43,382.16 v -35"
             style="fill:#000000;fill-opacity:1;fill-rule:nonzero;stroke:none"
             id="path184"
             inkscape:connector-curvature="0" /><path
             d="m 2774.43,382.16 v -35"
             style="fill:none;stroke:#000000;stroke-width:8;stroke-linecap:butt;stroke-linejoin:round;stroke-miterlimit:10;stroke-dasharray:none;stroke-opacity:1"
             id="path186"
             inkscape:connector-curvature="0" /><g
             id="g188"
             transform="scale(10)"><text
               transform="matrix(1,0,0,-1,264.725,23.6223)"
               style="font-variant:normal;font-weight:normal;font-size:10px;font-family:Arial;-inkscape-font-specification:Arial;writing-mode:lr-tb;fill:#000000;fill-opacity:1;fill-rule:nonzero;stroke:none"
               id="text192"><tspan
                 x="0 6.3620996 12.72459 19.086689"
                 y="0"
                 sodipodi:role="line"
                 id="tspan190">1250</tspan></text>
</g></g></g><g
         id="g194"><g
           id="g196"
           clip-path="url(#clipPath200)"><path
             d="M 3180.45,382.16 V 3043.28"
             style="fill:none;stroke:#b0b0b0;stroke-width:8;stroke-linecap:square;stroke-linejoin:round;stroke-miterlimit:10;stroke-dasharray:none;stroke-opacity:1"
             id="path202"
             inkscape:connector-curvature="0" /></g></g><g
         id="g204"><g
           id="g206"
           clip-path="url(#clipPath210)"><path
             d="m 3180.45,382.16 v -35"
             style="fill:#000000;fill-opacity:1;fill-rule:nonzero;stroke:none"
             id="path212"
             inkscape:connector-curvature="0" /><path
             d="m 3180.45,382.16 v -35"
             style="fill:none;stroke:#000000;stroke-width:8;stroke-linecap:butt;stroke-linejoin:round;stroke-miterlimit:10;stroke-dasharray:none;stroke-opacity:1"
             id="path214"
             inkscape:connector-curvature="0" /><g
             id="g216"
             transform="scale(10)"><text
               transform="matrix(1,0,0,-1,305.327,23.6223)"
               style="font-variant:normal;font-weight:normal;font-size:10px;font-family:Arial;-inkscape-font-specification:Arial;writing-mode:lr-tb;fill:#000000;fill-opacity:1;fill-rule:nonzero;stroke:none"
               id="text220"><tspan
                 x="0 6.3624902 12.72459 19.08708"
                 y="0"
                 sodipodi:role="line"
                 id="tspan218">1500</tspan></text>
</g></g></g><g
         id="g222"><g
           id="g224"
           clip-path="url(#clipPath228)"><path
             d="M 3586.48,382.16 V 3043.28"
             style="fill:none;stroke:#b0b0b0;stroke-width:8;stroke-linecap:square;stroke-linejoin:round;stroke-miterlimit:10;stroke-dasharray:none;stroke-opacity:1"
             id="path230"
             inkscape:connector-curvature="0" /></g></g><g
         id="g232"><g
           id="g234"
           clip-path="url(#clipPath238)"><path
             d="m 3586.48,382.16 v -35"
             style="fill:#000000;fill-opacity:1;fill-rule:nonzero;stroke:none"
             id="path240"
             inkscape:connector-curvature="0" /><path
             d="m 3586.48,382.16 v -35"
             style="fill:none;stroke:#000000;stroke-width:8;stroke-linecap:butt;stroke-linejoin:round;stroke-miterlimit:10;stroke-dasharray:none;stroke-opacity:1"
             id="path242"
             inkscape:connector-curvature="0" /><g
             id="g244"
             transform="scale(10)"><text
               transform="matrix(1,0,0,-1,345.929,23.6223)"
               style="font-variant:normal;font-weight:normal;font-size:10px;font-family:Arial;-inkscape-font-specification:Arial;writing-mode:lr-tb;fill:#000000;fill-opacity:1;fill-rule:nonzero;stroke:none"
               id="text248"><tspan
                 x="0 6.3620996 12.72459 19.086689"
                 y="0"
                 sodipodi:role="line"
                 id="tspan246">1750</tspan></text>
</g></g></g><g
         id="g250"><g
           id="g252"
           clip-path="url(#clipPath256)"><path
             d="M 3992.5,382.16 V 3043.28"
             style="fill:none;stroke:#b0b0b0;stroke-width:8;stroke-linecap:square;stroke-linejoin:round;stroke-miterlimit:10;stroke-dasharray:none;stroke-opacity:1"
             id="path258"
             inkscape:connector-curvature="0" /></g></g><g
         id="g260"><g
           id="g262"
           clip-path="url(#clipPath266)"><path
             d="m 3992.5,382.16 v -35"
             style="fill:#000000;fill-opacity:1;fill-rule:nonzero;stroke:none"
             id="path268"
             inkscape:connector-curvature="0" /><path
             d="m 3992.5,382.16 v -35"
             style="fill:none;stroke:#000000;stroke-width:8;stroke-linecap:butt;stroke-linejoin:round;stroke-miterlimit:10;stroke-dasharray:none;stroke-opacity:1"
             id="path270"
             inkscape:connector-curvature="0" /><g
             id="g272"
             transform="scale(10)"><text
               transform="matrix(1,0,0,-1,386.531,23.6223)"
               style="font-variant:normal;font-weight:normal;font-size:10px;font-family:Arial;-inkscape-font-specification:Arial;writing-mode:lr-tb;fill:#000000;fill-opacity:1;fill-rule:nonzero;stroke:none"
               id="text278"><tspan
                 x="0 6.3624902 12.72459 19.08708"
                 y="0"
                 sodipodi:role="line"
                 id="tspan274">2000</tspan><tspan
                 x="-165.005 -158.85266 -152.505 -146.38702 -140.88898"
                 y="13.6719"
                 sodipodi:role="line"
                 id="tspan276">epoch</tspan></text>
</g></g></g><g
         id="g280"><g
           id="g282"
           clip-path="url(#clipPath286)"><path
             d="M 582,445.113 H 4153.2"
             style="fill:none;stroke:#b0b0b0;stroke-width:8;stroke-linecap:square;stroke-linejoin:round;stroke-miterlimit:10;stroke-dasharray:none;stroke-opacity:1"
             id="path288"
             inkscape:connector-curvature="0" /></g></g><g
         id="g290"><g
           id="g292"
           clip-path="url(#clipPath296)"><path
             d="M 582,445.113 H 547"
             style="fill:#000000;fill-opacity:1;fill-rule:nonzero;stroke:none"
             id="path298"
             inkscape:connector-curvature="0" /><path
             d="M 582,445.113 H 547"
             style="fill:none;stroke:#000000;stroke-width:8;stroke-linecap:butt;stroke-linejoin:round;stroke-miterlimit:10;stroke-dasharray:none;stroke-opacity:1"
             id="path300"
             inkscape:connector-curvature="0" /><g
             id="g302"
             transform="scale(10)"><text
               transform="matrix(1,0,0,-1,28.9344,40.7145)"
               style="font-variant:normal;font-weight:normal;font-size:10px;font-family:Arial;-inkscape-font-specification:Arial;writing-mode:lr-tb;fill:#000000;fill-opacity:1;fill-rule:nonzero;stroke:none"
               id="text306"><tspan
                 x="0 6.3624992 9.5410166 15.903516"
                 y="0"
                 sodipodi:role="line"
                 id="tspan304">0.25</tspan></text>
</g></g></g><g
         id="g308"><g
           id="g310"
           clip-path="url(#clipPath314)"><path
             d="M 582,874.227 H 4153.2"
             style="fill:none;stroke:#b0b0b0;stroke-width:8;stroke-linecap:square;stroke-linejoin:round;stroke-miterlimit:10;stroke-dasharray:none;stroke-opacity:1"
             id="path316"
             inkscape:connector-curvature="0" /></g></g><g
         id="g318"><g
           id="g320"
           clip-path="url(#clipPath324)"><path
             d="M 582,874.227 H 547"
             style="fill:#000000;fill-opacity:1;fill-rule:nonzero;stroke:none"
             id="path326"
             inkscape:connector-curvature="0" /><path
             d="M 582,874.227 H 547"
             style="fill:none;stroke:#000000;stroke-width:8;stroke-linecap:butt;stroke-linejoin:round;stroke-miterlimit:10;stroke-dasharray:none;stroke-opacity:1"
             id="path328"
             inkscape:connector-curvature="0" /><g
             id="g330"
             transform="scale(10)"><text
               transform="matrix(1,0,0,-1,28.9344,83.6258)"
               style="font-variant:normal;font-weight:normal;font-size:10px;font-family:Arial;-inkscape-font-specification:Arial;writing-mode:lr-tb;fill:#000000;fill-opacity:1;fill-rule:nonzero;stroke:none"
               id="text334"><tspan
                 x="0 6.3624992 9.5410166 15.903516"
                 y="0"
                 sodipodi:role="line"
                 id="tspan332">0.30</tspan></text>
</g></g></g><g
         id="g336"><g
           id="g338"
           clip-path="url(#clipPath342)"><path
             d="M 582,1303.34 H 4153.2"
             style="fill:none;stroke:#b0b0b0;stroke-width:8;stroke-linecap:square;stroke-linejoin:round;stroke-miterlimit:10;stroke-dasharray:none;stroke-opacity:1"
             id="path344"
             inkscape:connector-curvature="0" /></g></g><g
         id="g346"><g
           id="g348"
           clip-path="url(#clipPath352)"><path
             d="M 582,1303.34 H 547"
             style="fill:#000000;fill-opacity:1;fill-rule:nonzero;stroke:none"
             id="path354"
             inkscape:connector-curvature="0" /><path
             d="M 582,1303.34 H 547"
             style="fill:none;stroke:#000000;stroke-width:8;stroke-linecap:butt;stroke-linejoin:round;stroke-miterlimit:10;stroke-dasharray:none;stroke-opacity:1"
             id="path356"
             inkscape:connector-curvature="0" /><g
             id="g358"
             transform="scale(10)"><text
               transform="matrix(1,0,0,-1,28.9344,126.537)"
               style="font-variant:normal;font-weight:normal;font-size:10px;font-family:Arial;-inkscape-font-specification:Arial;writing-mode:lr-tb;fill:#000000;fill-opacity:1;fill-rule:nonzero;stroke:none"
               id="text362"><tspan
                 x="0 6.3624992 9.5410166 15.903516"
                 y="0"
                 sodipodi:role="line"
                 id="tspan360">0.35</tspan></text>
</g></g></g><g
         id="g364"><g
           id="g366"
           clip-path="url(#clipPath370)"><path
             d="M 582,1732.45 H 4153.2"
             style="fill:none;stroke:#b0b0b0;stroke-width:8;stroke-linecap:square;stroke-linejoin:round;stroke-miterlimit:10;stroke-dasharray:none;stroke-opacity:1"
             id="path372"
             inkscape:connector-curvature="0" /></g></g><g
         id="g374"><g
           id="g376"
           clip-path="url(#clipPath380)"><path
             d="M 582,1732.45 H 547"
             style="fill:#000000;fill-opacity:1;fill-rule:nonzero;stroke:none"
             id="path382"
             inkscape:connector-curvature="0" /><path
             d="M 582,1732.45 H 547"
             style="fill:none;stroke:#000000;stroke-width:8;stroke-linecap:butt;stroke-linejoin:round;stroke-miterlimit:10;stroke-dasharray:none;stroke-opacity:1"
             id="path384"
             inkscape:connector-curvature="0" /><g
             id="g386"
             transform="scale(10)"><text
               transform="matrix(1,0,0,-1,28.9344,169.448)"
               style="font-variant:normal;font-weight:normal;font-size:10px;font-family:Arial;-inkscape-font-specification:Arial;writing-mode:lr-tb;fill:#000000;fill-opacity:1;fill-rule:nonzero;stroke:none"
               id="text390"><tspan
                 x="0 6.3624992 9.5410166 15.903516"
                 y="0"
                 sodipodi:role="line"
                 id="tspan388">0.40</tspan></text>
</g></g></g><g
         id="g392"><g
           id="g394"
           clip-path="url(#clipPath398)"><path
             d="M 582,2161.57 H 4153.2"
             style="fill:none;stroke:#b0b0b0;stroke-width:8;stroke-linecap:square;stroke-linejoin:round;stroke-miterlimit:10;stroke-dasharray:none;stroke-opacity:1"
             id="path400"
             inkscape:connector-curvature="0" /></g></g><g
         id="g402"><g
           id="g404"
           clip-path="url(#clipPath408)"><path
             d="M 582,2161.56 H 547"
             style="fill:#000000;fill-opacity:1;fill-rule:nonzero;stroke:none"
             id="path410"
             inkscape:connector-curvature="0" /><path
             d="M 582,2161.56 H 547"
             style="fill:none;stroke:#000000;stroke-width:8;stroke-linecap:butt;stroke-linejoin:round;stroke-miterlimit:10;stroke-dasharray:none;stroke-opacity:1"
             id="path412"
             inkscape:connector-curvature="0" /><g
             id="g414"
             transform="scale(10)"><text
               transform="matrix(1,0,0,-1,28.9344,212.36)"
               style="font-variant:normal;font-weight:normal;font-size:10px;font-family:Arial;-inkscape-font-specification:Arial;writing-mode:lr-tb;fill:#000000;fill-opacity:1;fill-rule:nonzero;stroke:none"
               id="text418"><tspan
                 x="0 6.3624992 9.5410166 15.903516"
                 y="0"
                 sodipodi:role="line"
                 id="tspan416">0.45</tspan></text>
</g></g></g><g
         id="g420"><g
           id="g422"
           clip-path="url(#clipPath426)"><path
             d="M 582,2590.68 H 4153.2"
             style="fill:none;stroke:#b0b0b0;stroke-width:8;stroke-linecap:square;stroke-linejoin:round;stroke-miterlimit:10;stroke-dasharray:none;stroke-opacity:1"
             id="path428"
             inkscape:connector-curvature="0" /></g></g><g
         id="g430"><g
           id="g432"
           clip-path="url(#clipPath436)"><path
             d="M 582,2590.68 H 547"
             style="fill:#000000;fill-opacity:1;fill-rule:nonzero;stroke:none"
             id="path438"
             inkscape:connector-curvature="0" /><path
             d="M 582,2590.68 H 547"
             style="fill:none;stroke:#000000;stroke-width:8;stroke-linecap:butt;stroke-linejoin:round;stroke-miterlimit:10;stroke-dasharray:none;stroke-opacity:1"
             id="path440"
             inkscape:connector-curvature="0" /><g
             id="g442"
             transform="scale(10)"><text
               transform="matrix(1,0,0,-1,28.9344,255.271)"
               style="font-variant:normal;font-weight:normal;font-size:10px;font-family:Arial;-inkscape-font-specification:Arial;writing-mode:lr-tb;fill:#000000;fill-opacity:1;fill-rule:nonzero;stroke:none"
               id="text446"><tspan
                 x="0 6.3624992 9.5410166 15.903516"
                 y="0"
                 sodipodi:role="line"
                 id="tspan444">0.50</tspan></text>
</g></g></g><g
         id="g448"><g
           id="g450"
           clip-path="url(#clipPath454)"><path
             d="M 582,3019.79 H 4153.2"
             style="fill:none;stroke:#b0b0b0;stroke-width:8;stroke-linecap:square;stroke-linejoin:round;stroke-miterlimit:10;stroke-dasharray:none;stroke-opacity:1"
             id="path456"
             inkscape:connector-curvature="0" /></g></g><g
         id="g458"><g
           id="g460"
           clip-path="url(#clipPath464)"><path
             d="M 582,3019.79 H 547"
             style="fill:#000000;fill-opacity:1;fill-rule:nonzero;stroke:none"
             id="path466"
             inkscape:connector-curvature="0" /><path
             d="M 582,3019.79 H 547"
             style="fill:none;stroke:#000000;stroke-width:8;stroke-linecap:butt;stroke-linejoin:round;stroke-miterlimit:10;stroke-dasharray:none;stroke-opacity:1"
             id="path468"
             inkscape:connector-curvature="0" /><g
             id="g470"
             transform="scale(10)"><text
               transform="matrix(1,0,0,-1,28.9344,298.182)"
               style="font-variant:normal;font-weight:normal;font-size:10px;font-family:Arial;-inkscape-font-specification:Arial;writing-mode:lr-tb;fill:#000000;fill-opacity:1;fill-rule:nonzero;stroke:none"
               id="text474"><tspan
                 x="0 6.3624992 9.5410166 15.903516"
                 y="0"
                 sodipodi:role="line"
                 id="tspan472">0.55</tspan></text>
<text
               transform="matrix(0,1,1,0,22.8563,157.155)"
               style="font-variant:normal;font-weight:normal;font-size:10px;font-family:Arial;-inkscape-font-specification:Arial;writing-mode:lr-tb;fill:#000000;fill-opacity:1;fill-rule:nonzero;stroke:none"
               id="text478"><tspan
                 x="0 6.9484377 15.576167 21.923822"
                 y="0"
                 sodipodi:role="line"
                 id="tspan476">RMSE</tspan></text>
</g></g></g><g
         id="g480"><g
           id="g482"
           clip-path="url(#clipPath486)"><path
             d="m 744.328,2622.23 3.246,-76.01 1.625,21.06 1.625,-67.52 1.625,422.56 1.621,-327.93 1.625,-25.74 1.625,-115.63 1.625,425.53 1.621,10.46 1.625,-486.53 1.625,98.43 1.625,192.1 1.625,-20.24 3.247,-337.17 1.625,80.85 1.625,11.32 1.621,-39.05 1.625,-103.22 1.625,496.5 1.625,-436.22 1.621,-96.36 1.625,48.76 1.625,-69.33 1.625,275.8 1.621,-106.94 1.625,127.75 1.625,-336.41 1.625,235.94 1.625,436.99 1.621,-604.32 1.625,18.95 1.625,-144.14 1.625,595.69 1.621,-603.75 1.625,106.63 1.625,-137.43 1.625,-15.84 1.621,448.21 1.625,-459.48 3.25,-24.8 1.621,32.03 1.625,-53.13 1.625,72.15 1.625,293.18 1.625,-392.31 1.621,469.16 1.625,-438.08 1.625,392.46 1.625,-404.5 1.621,-62.69 3.25,109.88 1.625,226.4 1.621,-370.32 1.625,111.98 1.625,14.11 1.625,-135.77 1.625,-23.02 1.622,1.24 1.625,422.61 3.25,-437.81 1.621,-17.11 1.625,12.71 1.625,276.18 3.246,-319.72 1.625,232.95 1.625,474.25 1.625,-714.85 1.621,117.36 1.625,-136.97 1.625,121.21 1.625,-0.44 3.246,-147.71 1.625,10.19 1.625,-8.52 1.625,242.41 1.621,-62.34 1.625,-217.85 1.625,407.91 1.625,-47.23 1.621,-352.78 1.625,16.62 1.625,-66.08 1.625,-4.55 1.621,-9.79 1.625,160.98 3.25,-172.35 3.246,356.21 1.625,-372.8 1.625,142.43 1.625,-160.14 1.621,17.84 1.625,89.44 1.625,-38.79 1.625,-92.1 1.621,-3.6 1.625,115.72 3.25,-126.67 1.622,402.08 1.625,-56.59 1.625,-353.69 3.25,264.13 1.621,-45.84 1.625,-252.67 1.625,46.77 1.625,-12.32 1.621,33.79 1.625,-71.02 1.625,1.16 1.625,-25.9 1.621,160.19 1.625,-149.38 1.625,423.11 1.625,-413.97 1.625,97.03 1.621,-143.3 1.625,40.97 1.625,116.59 1.625,-164.94 1.621,-1.87 3.25,261.17 1.625,-265.56 1.621,141.3 1.625,-22.59 1.625,-135.35 1.625,219.97 1.621,-78.79 1.625,-149.52 1.625,258.94 1.625,-222.18 1.625,-47.67 1.621,77.35 1.625,-87.24 1.625,18.99 1.625,44.81 1.621,-62.24 1.625,0.06 3.25,68.42 1.622,4.82 1.625,-35.21 1.625,90.59 3.246,-136.15 1.625,-13.73 1.625,-40.67 1.621,107.51 1.63,-54.44 1.62,1.86 1.62,-69.62 1.63,20.63 1.62,-16.32 1.63,20.06 1.62,-34.56 1.63,134.04 1.62,-123.82 1.62,159.34 1.63,-185.64 1.62,230.02 1.63,7.96 3.24,-252.15 1.63,71.72 1.62,-76.28 1.63,58.91 1.62,-41.77 1.62,-3.38 1.63,23.28 1.62,-44.9 1.63,41.04 1.62,-0.57 1.63,-53.35 1.62,5.79 1.62,-16.47 1.63,-0.72 1.62,30.46 3.25,-41.74 1.62,86.99 1.63,-64.88 1.62,9.9 3.25,-36.34 1.62,7.7 1.63,-16.95 1.62,118.6 3.25,-33.69 1.62,-97.79 1.63,-5.48 1.62,7.39 3.25,-14.93 1.63,-0.42 1.62,2.41 3.25,-12 1.62,128.46 1.63,-132.66 1.62,32.48 1.62,-35.97 1.63,32.12 1.62,-5.26 1.62,-18.99 1.63,65.54 1.62,-32.48 1.63,-56.13 1.62,-2.51 3.25,125.1 3.25,-133.57 1.62,15.67 3.25,-23.11 1.63,1.62 3.24,53.74 1.63,-56.23 1.62,31.38 1.62,-41.67 1.63,16.73 1.62,-22.46 1.63,9.77 1.62,-6.27 1.62,106.77 1.63,-112.32 1.62,24.84 1.63,-21.52 1.62,33.57 1.63,-49.17 1.62,-1.11 1.63,3.77 1.62,-10.39 1.62,-1.05 1.63,40.43 1.62,-45.13 3.25,3.67 1.62,206.82 1.63,-209.59 1.62,18.67 1.62,-30.74 1.63,61.95 1.62,-55.45 1.63,132.46 1.62,-144.44 3.25,-2.63 1.62,-3 1.63,181.78 1.62,-179.42 1.63,46.37 1.62,-41.6 1.62,71.73 1.63,-87.57 1.62,44.22 1.63,-18.61 1.62,-33.52 1.62,61.85 1.63,-64.77 1.62,29.86 1.63,-29.83 1.62,88.73 1.62,-68.83 1.63,-9.3 1.62,-20.64 1.63,-0.82 3.25,-4.02 1.62,59.16 1.62,-59.46 1.63,-5.45 1.62,42.39 1.63,-45.35 3.24,31.37 1.63,0.02 1.62,-33.18 1.63,3.62 1.62,-5.6 3.25,13.21 1.62,60.4 1.62,-77.35 3.25,-10.65 3.25,-2.97 3.25,53.04 3.25,-51.57 1.62,-6.14 1.63,-1.01 1.62,6.88 1.63,-11.46 1.62,15.12 1.62,62.34 1.63,-78.82 1.62,9.04 1.62,-6.59 1.63,8.18 1.62,-19.74 1.63,-1.53 1.62,45.19 1.63,-45.1 1.62,8.81 1.63,133.36 1.62,-146.72 1.62,6.93 1.63,30.11 1.62,-43.05 1.63,6.1 3.24,19.35 1.63,66.01 1.62,-91.01 1.62,17.68 1.63,60.29 1.62,-78.49 1.63,8.11 1.62,-18.73 1.62,0.62 1.63,47.8 1.62,-48.36 1.63,17.39 1.62,-25.362 1.63,-1.29 1.62,13.002 1.63,40.24 1.62,-56.808 1.62,3.582 3.25,-5.844 1.63,42.18 1.62,-45.758 1.62,23.418 1.63,-8 1.62,44.28 1.62,-56.417 1.63,-8.757 3.25,-1.18 1.62,88.344 1.63,-91.973 1.62,7.859 1.63,17.214 1.62,-28.092 1.62,-1.368 1.63,23.254 1.62,-14.23 1.63,24.336 1.62,-30.196 1.62,-8.523 1.63,1.113 1.62,-0.59 1.62,8.079 3.25,35.567 1.63,-50.513 1.62,0.254 1.62,-1.613 1.63,6.926 1.62,-5.278 1.63,12.348 1.62,-18.781 3.25,-1.442 1.63,8.723 1.62,-10.059 1.62,-2.41 1.63,38.52 3.24,-40.254 3.25,-2.996 1.63,10.957 1.62,32.57 1.62,-45.152 1.63,3.125 1.62,26.468 1.62,-25.832 1.63,-7.222 1.62,52.648 1.63,-53.742 1.62,39.32 1.63,-43.601 1.62,16.125 1.63,-4.516 1.62,4.277 1.62,-3.652 1.63,-16.418 3.25,-0.875 1.62,9.18 1.62,-9.317 1.63,-0.179 1.62,42.855 1.63,-41.597 1.62,-0.645 1.62,17.379 3.25,-27.063 1.63,4.68 3.25,33.078 1.62,-41.254 3.25,40.168 1.62,-42.59 1.63,38.661 1.62,-39.625 1.62,1.941 1.63,-4.977 1.62,-0.785 1.63,14.801 1.62,3.774 1.62,-7.153 1.63,-14.847 1.62,21.546 1.62,-0.113 1.63,-4.758 1.62,32.895 3.25,-54.504 1.63,4.027 1.62,-1.215 1.63,-5.246 1.62,4.207 1.62,-5.515 1.63,57.75 3.25,-50.824 1.62,-8.532 1.62,10.77 1.63,-14.199 1.62,57.777 1.62,-59.352 1.63,1.43 3.25,-1.797 1.62,4.188 3.25,-7.09 1.63,9.34 1.62,35.492 1.62,-48.254 3.25,57.02 1.63,-44.239 1.62,-13.597 3.25,36.386 1.62,-39.48 1.62,7.629 1.63,-8.477 1.62,0.942 1.63,15.25 1.62,-20.395 4.87,9.297 1.63,-12.246 1.62,24.941 3.25,-20.601 1.63,-6.895 1.62,-1.047 1.62,81.02 1.63,-81.313 3.24,45.383 1.63,-48.562 1.62,2.531 1.63,29.219 1.62,-1.289 1.62,-33.063 1.63,50.586 1.62,-41.418 1.63,-9.969 1.62,3.18 1.63,-0.008 1.62,16.379 1.63,31.535 3.24,-51.715 1.63,27.348 1.62,-32.973 1.62,7.075 1.63,12.679 1.62,-11.898 1.63,-2.735 1.62,-8.39 1.62,1.746 1.63,-3.254 3.25,-1.492 1.62,2.379 1.62,-1.657 1.63,9.825 1.62,40.922 3.25,-49.489 1.63,-1.218 1.62,32.964 1.62,-32.703 3.25,40.489 1.63,-44.036 1.62,-5.695 1.62,5.172 1.63,81.586 1.62,-87.363 1.63,-1.547 1.62,35.75 1.62,6.535 1.63,-44.481 1.62,5.039 1.62,-6.183 1.63,40.848 1.62,-42.063 1.63,11.195 1.62,-12.425 1.63,21.406 1.62,-21.641 1.63,98.106 1.62,-100.243 3.25,1.196 1.62,33.976 3.25,-37.597 3.25,7.433 1.62,-2.136 1.62,33.211 1.63,-8.372 1.62,-33.277 1.63,-0.504 1.62,2.528 1.63,-0.411 1.62,5.786 1.63,-11.028 1.62,0.531 1.62,33.032 1.63,-21.914 1.62,0.535 1.63,27.14 3.24,-41.359 1.63,42.172 1.62,-38.84 1.62,16.102 1.63,-8.891 1.62,14.129 1.63,-27.984 1.62,-2.161 1.62,2.254 1.63,-1.793 1.62,19.106 1.63,-3.703 1.62,-18.653 1.63,84.325 3.25,-80.493 1.62,18.543 1.62,-21.328 1.63,17.653 1.62,-6.317 1.62,13.512 1.63,-2.629 1.62,-27.43 1.63,2.094 1.62,15.105 1.62,-15.668 1.63,5.973 1.62,-3.758 1.63,3.895 4.87,-12.664 1.63,10.019 3.24,45.696 1.63,-44.336 1.62,51.218 1.62,-66.226 1.63,4.101 1.62,-4.16 1.63,2.551 1.62,-1.976 1.62,70.582 1.63,-73.922 1.62,2.675 1.63,9.719 1.62,42.367 1.62,-57.058 1.63,40.957 1.62,-39.949 1.63,11.906 1.62,58.457 1.63,-66.004 1.62,2.48 1.62,-8.597 1.63,0.066 1.62,-2.492 1.63,-0.07 1.62,44.972 1.62,-38.484 1.63,0.176 1.62,1.453 1.63,-10.129 4.87,35.043 1.62,-37.922 3.25,-1.469 1.63,9.442 1.62,-6.664 1.63,66.328 1.62,-50.016 1.62,-5.719 1.63,19.149 1.62,-23.121 1.62,-1.492 3.25,-11.793 1.63,3.855 1.62,9.039 3.25,-14.781 1.62,20.793 1.62,3.824 1.63,-26.953 1.62,17.293 1.63,-18.238 1.62,12.332 1.63,-11.407 1.62,-2.238 1.63,55.535 1.62,-54.402 1.62,0.336 1.63,22.449 1.62,-16.266 1.63,-1.832 1.62,7.997 1.62,-15.524 3.25,5.613 1.62,-1.324 1.63,-3.082 1.62,20.481 1.63,3.941 1.62,29.355 1.62,-51.058 1.63,12.543 3.25,7.969 1.62,-30.344 1.63,23.988 1.62,-23.285 1.63,-2.984 1.62,6.832 1.62,-3.336 1.63,18.273 1.62,-23.301 1.62,7.981 1.63,-1.75 1.62,-7.504 1.63,1.824 3.24,17.922 1.63,-21.277 3.25,46.906 1.62,-43.246 1.63,25.851 1.62,-27.937 1.63,7.523 1.62,1.028 1.62,24.64 3.25,-28.48 1.62,25.898 1.63,-31.804 1.62,16.195 1.63,-10.758 1.62,10.801 1.62,-21.004 1.63,9.223 1.62,-11.336 6.5,36.043 1.62,-37.602 1.63,-0.387 1.62,8.731 1.63,-10.805 1.62,37.238 1.62,-27.191 1.63,3.109 1.62,-14.566 1.63,17.293 1.62,-17.613 1.62,-0.934 1.63,5.25 1.62,-5.902 1.63,5.16 1.62,1.223 1.62,4.769 1.63,-10.492 1.62,-1.93 1.63,42.352 1.62,-42.133 1.63,9.625 1.62,19.008 1.63,-31.508 1.62,3.758 1.62,-3.723 1.63,8.957 1.62,-8.207 1.62,-1.305 1.63,0.848 1.62,-2.887 1.63,6.778 1.62,-7.524 1.62,1.266 1.63,3.281 1.62,-5.648 1.62,27.3 1.63,-26.507 1.62,-0.223 1.63,3.176 1.62,-4.793 1.63,-0.375 1.62,3.449 1.63,-4.422 1.62,0.574 1.62,19.946 1.63,5.968 3.25,-5.109 1.62,-22.785 1.62,0.586 1.63,-2.477 3.25,4.606 1.62,5.441 1.62,15.11 1.63,-26.602 1.62,41.836 1.63,-38.301 1.62,30 1.63,-35.203 1.62,59.176 3.25,-55.785 1.62,34.851 1.63,-39.156 1.62,0.977 1.62,4.496 1.63,11.097 1.62,-17.875 1.63,19.766 1.62,-21.293 1.62,8.726 1.63,-9.261 1.62,-0.465 1.62,21.84 3.25,-20.801 1.63,-0.164 3.25,27.101 1.62,-3.917 1.63,-26.551 3.24,2.968 1.63,-4.23 3.25,18.801 1.62,-19.606 1.62,4.387 1.63,-5.305 1.62,10.555 1.62,-10.043 1.63,20.09 1.62,-18.816 1.63,1.632 1.62,-1.476 1.62,-4.016 1.63,27.012 1.62,-27.758 1.63,2.629 1.62,30.875 3.25,-29.586 1.63,0.738 1.62,22.196 3.25,-19.028 1.62,-10.828 1.62,16.828 3.25,-17.453 1.63,46.742 1.62,-47.148 1.62,30.344 1.63,-31.09 1.62,2.265 4.88,17.594 1.62,-15.519 1.63,3.949 1.62,34.84 1.62,2.687 1.63,-9.676 1.62,-33.007 3.25,-6.649 1.62,13.11 1.63,-13.29 3.24,4.153 1.63,-6.184 1.62,31.489 1.63,-27.196 1.62,3.074 1.62,-3.156 1.63,4.266 1.62,-10.125 1.63,1.211 1.62,-0.879 3.25,20.84 1.62,-7.141 1.63,-13.652 1.62,3.058 1.63,12.657 1.62,-18.985 3.25,5.703 1.62,17.102 1.63,-21.34 1.62,-2.91 1.62,10.953 1.63,-0.922 3.25,-11.254 1.62,16.988 1.63,-16.929 1.62,2.937 1.62,23.032 1.63,-24.563 1.62,40.238 1.63,-42.761 1.62,8.476 1.62,-1.262 1.63,21.852 1.62,-31.133 1.63,-0.347 1.62,10.902 1.62,-11.297 1.63,1.141 3.24,-2 1.63,1.371 1.62,-1.848 1.63,0.098 1.62,10.109 1.63,-2.594 3.25,9.715 1.62,33.946 1.62,-48.321 1.63,-5.211 1.62,-0.082 1.63,56.25 3.24,-51.09 1.63,-6.121 3.24,-0.593 1.63,14.55 1.62,2.321 1.63,-14.149 1.62,16.883 1.63,-20.973 1.62,0.481 3.25,11.035 1.62,-7.762 1.63,1.633 1.62,-7.476 1.63,22.039 6.49,-23.649 1.62,0.836 1.63,18.586 1.62,-20.184 1.63,10.403 1.62,0.004 1.62,-11.266 1.63,5.164 1.62,-1.094 1.63,58.082 1.62,-55.777 1.63,-7.449 1.62,74.765 1.63,-65.203 1.62,-10.386 1.62,0.332 1.63,30.047 1.62,-26.79 1.62,2.133 1.63,6.172 1.62,-6.531 1.63,21.008 1.62,-25.133 1.62,-3.442 3.25,-0.964 1.63,1.632 1.62,13.555 1.62,37.223 1.63,-53.086 1.62,32.101 1.63,-7.496 3.25,-25.949 1.62,2.957 1.62,-3.379 1.63,-0.199 1.62,14.57 1.63,-14.324 4.87,-1.707 1.62,3.238 1.63,-1.418 1.62,55.707 1.62,-51.082 1.63,4.196 1.62,-11.18 1.63,-1.309 1.62,6.297 1.63,-5.047 1.62,8.227 1.62,-8.402 1.63,4.527 3.25,-5.797 1.62,0.809 1.62,6.191 1.63,-1.949 1.62,-6.113 1.63,26.539 1.62,-22.922 1.62,15.5 1.63,-18.731 1.62,5.457 1.62,-7.57 1.63,3.523 1.62,108.168 1.63,-105.48 1.62,-8.469 1.63,18.301 1.62,-17.777 1.63,-1.293 1.62,35.269 1.62,-30.515 1.63,-5.332 1.62,-0.403 1.63,1.953 1.62,17.09 3.25,-19.25 1.62,-0.504 1.62,15.637 3.25,-14.203 1.63,-2.734 1.62,45.66 1.63,-41.629 1.62,-4.406 1.63,16.667 1.62,-15.828 3.25,-2.121 1.62,37.012 1.63,3.48 1.62,-37.16 1.62,2.473 1.63,-6.695 1.62,1.086 1.62,31.187 1.63,-32.293 1.62,13.059 1.63,-14.801 1.62,6.801 1.62,-6.598 1.63,27.316 1.62,-1.101 1.63,-27.52 1.62,2.407 1.63,-0.524 1.62,2.141 1.63,-4.844 3.24,-0.621 1.63,8.266 1.62,-6.801 3.25,0.308 1.62,5.243 1.63,-6.778 1.62,25.719 1.62,-13.551 1.63,17.965 1.62,-32.297 1.63,2.172 3.25,21.426 1.62,-24.695 1.63,6.656 1.62,25.886 1.62,-9.382 1.63,-24.223 1.62,13.16 1.63,-3.418 1.62,-10.558 1.62,-0.024 1.63,6.078 1.62,-5.691 1.62,-1.133 1.63,2.356 3.25,-2.254 3.24,-1.34 1.63,11.738 1.62,-12.215 1.63,8.426 1.62,-8.059 1.63,-0.214 1.62,5.441 1.63,-1.602 1.62,21.782 3.25,-27.41 1.62,0.71 3.25,18.555 3.25,-19.519 1.62,2.406 1.62,-1.895 1.63,25.7 1.62,-25.161 1.62,2.004 1.63,-4.453 1.62,-0.715 1.63,25.282 1.62,-8.844 1.63,-15.485 3.25,16.442 1.62,-19.113 1.62,12.878 6.5,-13.226 1.62,26.715 1.63,-24.602 3.24,-3.793 1.63,0.641 1.62,3.492 1.63,-4.09 1.62,29.496 1.63,-28.73 1.62,29.828 1.63,-28.738 1.62,2.695 3.25,-6.773 3.25,49.089 1.62,-35.64 1.62,11.949 1.63,-24.082 1.62,1.437 1.62,30.7 1.63,-32.231 1.62,4.133 1.63,-5.375 1.62,20.738 1.62,-15.859 1.63,30.934 1.62,-36.852 1.63,-1.297 1.62,1.031 1.63,32.387 1.62,-31.75 1.63,9.586 1.62,-12.754 1.62,3.305 1.63,-4.098 3.25,-0.004 1.62,19.399 1.62,-17.793 1.63,-0.231 1.62,12.965 1.62,-10.437 1.63,23.691 1.62,-27.094 1.63,-2.441 1.62,15.918 1.63,-15.254 1.62,-1.074 1.63,63.824 1.62,-62.141 1.62,-2.633 1.63,-0.238 1.62,42.481 1.63,-42.727 3.24,2.738 1.63,5.512 1.62,-8.98 1.62,-0.434 1.63,8.898 1.62,-6.511 1.63,26.343 1.62,-28.945 1.62,0.637 1.63,-1.125 1.62,36.074 1.63,-36.945 1.62,16.41 1.63,-13.762 1.62,-3.211 1.63,11.696 3.24,-12.344 1.63,5.211 1.62,-5.528 3.25,-0.226 1.62,3.027 1.63,6.422 1.62,-7.816 1.62,5.886 1.63,25.434 1.62,-28.531 1.63,-5.594 1.62,27.91 3.25,-26.508 1.63,14.711 1.62,-14.703 3.25,7.863 1.62,20.485 1.62,-29.227 1.63,9.871 3.25,-13.172 1.62,34.75 1.62,-35.156 1.63,0.891 1.62,-1.207 1.63,1.179 1.62,71.442 3.25,-72.656 1.62,0.246 3.25,7.457 1.63,-8.035 1.62,10.117 1.62,-11.879 1.63,2.738 1.62,-2.484 1.63,51.82 1.62,-48.641 1.62,-1.101 1.63,11.309 1.62,-13.079 1.63,12.817 1.62,-12.383 1.62,-1.656 3.25,9.953 3.25,-11.777 1.62,2.847 1.63,16.258 3.25,-19.738 1.62,0.773 1.63,17.606 1.62,-17.696 3.25,3.879 1.62,-5.211 1.63,-0.527 1.62,21.355 1.62,-22.109 3.25,15.383 1.62,-15.258 1.63,2.691 1.62,26.637 1.63,-30.215 1.62,7.457 1.63,1.832 1.62,-9.578 1.63,-0.851 1.62,2.867 1.62,-3.356 6.5,2.852 1.62,-3.75 1.63,0.199 1.62,2.43 1.62,-3.203 1.63,4.39 1.62,51.059 1.63,-56.02 1.62,-0.148 1.62,15.551 1.63,-15.207 1.62,18.734 3.25,-19.164 1.63,0.109 1.62,5.028 1.63,-5.512 1.62,15.473 1.62,-8.903 1.63,4.2 1.62,-10.211 1.62,-2.496 1.63,10.039 1.62,-8.2 1.63,-2.265 1.62,0.164 3.25,12.965 1.62,-8.18 1.63,2.687 3.25,-8.593 1.62,3.824 1.63,-4.57 1.62,9.754 1.62,-9.157 1.63,24.078 1.62,-23.902 1.62,1.617 1.63,8.86 3.25,-6.895 1.62,30.004 1.62,-34.223 1.63,22.149 3.25,-20.317 1.62,-2.476 1.62,5 1.63,-7.094 1.62,0.992 1.63,-1.625 1.62,0.664 1.63,-1.007 1.62,42.843 1.62,-30.289 1.63,3.524 1.62,-12.571 1.63,30.957 1.62,4.907 1.62,-32.172 3.25,-8.422 1.63,-0.602 1.62,8.883 1.62,-8.508 1.63,24.907 1.62,-25.86 1.63,2.192 1.62,-2.649 1.63,4.387 1.62,-0.91 1.62,-3.758 1.63,46.121 1.62,-45.793 1.63,1.641 1.62,-0.75 1.62,25.453 1.63,-25.594 3.25,-2.312 3.24,0.222 1.63,8.512 1.62,-6.813 1.62,1.825 1.63,25.691 1.62,-30.559 1.63,11.231 1.62,1.812 1.63,-10.351 1.62,10.527 1.63,-12.711 1.62,22.168 1.62,-13.765 1.63,7.382 1.62,-15.129 1.63,-3.261 9.74,-0.922 1.62,1.535 1.63,19.113 1.62,-21.289 1.62,1.305 1.63,3.965 1.62,36.156 3.25,-38.375 1.63,33.121 1.62,-32.64 1.63,-4.813 1.62,10.301 1.62,-8.399 1.63,-2.254 3.25,2.704 1.62,7.773 1.62,-11.48 1.63,0.699 1.62,18.781 1.62,-18.75 1.63,-0.832 3.25,18.961 1.62,-12.195 3.25,20.769 1.63,-29.055 3.24,3.321 4.87,-3.664 3.25,-0.442 1.63,9.18 1.62,-9.289 1.62,39.055 1.63,-39.371 1.62,21.933 1.63,-22.277 1.62,3.207 3.25,-3.703 1.62,1.16 1.63,-1.141 1.62,18.668 1.63,-18.789 1.62,5.563 1.63,-6.801 3.24,48.504 1.63,-46.016 1.62,43.074 1.62,-43.117 3.25,-2.738 1.63,-1.125 1.62,16.648 3.25,-15.668 1.62,0.348 1.63,3.406 1.62,31 1.63,-36.828 3.24,9.301 1.63,9.777 1.62,-19.121 3.25,-0.734 1.62,2.187 3.25,-2.902 1.63,-0.223 3.24,1.059 1.63,7.457 1.62,-6.813 1.62,7.543 1.63,-6.589 1.62,1.417 1.63,-5.089 1.62,12.898 1.63,-6.668 3.25,9.043 1.62,-16.289 3.25,0.078 1.62,9.867 1.63,-9.554 4.87,-1.489 1.62,23.325 1.62,-22.2 1.63,1.493 1.62,42.105 1.63,-45.52 1.62,4.473 1.63,-3.207 1.62,0.602 3.25,-2.551 1.62,1.152 1.63,6.364 1.62,-4.676 1.63,18.207 1.62,-21.84 1.62,1.519 1.63,7.7 1.62,-9.649 3.25,-0.48 1.62,2.437 1.63,-2.804 1.62,0.828 1.62,-0.703 1.63,4.671 1.62,-3.41 1.63,5.891 1.62,-8.113 1.63,17.422 1.62,-17.829 1.63,1.887 1.62,14.391 1.62,-6.817 1.63,11.164 1.62,-18.086 1.63,4.618 1.62,-6.536 1.62,-0.386 1.63,18.886 1.62,-20.308 1.62,-0.488 1.63,17.48 1.62,-7.547 1.63,-1.523 1.62,35.898 1.62,-39.711 1.63,-4.152 1.62,2.059 1.63,8.691 1.62,2.605 1.63,-14.914 1.62,16.243 1.63,-13.153 1.62,12.676 1.62,-4 1.63,6.199 1.62,-13.512 1.62,6.254 1.63,-10.339 1.62,0.496 1.63,5.289 1.62,-6.489 1.62,-1.543 1.63,7.016 1.62,-7.602 1.63,47.09 1.62,-46.48 6.5,-0.895 1.62,34.606 1.63,-35.504 1.62,4.164 1.62,-2.363 1.63,2.738 3.25,-4.695 1.62,-0.188 1.62,11.035 1.63,-9.422 1.62,-0.253 1.62,-2.223 1.63,0.758 1.62,-1.196 1.63,1.082 1.62,4.059 3.25,-2.469 1.63,12.321 1.62,-11.172 6.5,-5.504 1.62,5.34 3.25,-5.59 3.25,5.679 3.24,-6.371 1.63,18.672 3.25,-18.699 1.62,6.793 1.63,-2.316 1.62,28.058 1.62,-32.722 1.63,5.707 1.62,-6.883 1.63,-0.141 1.62,4.965 1.62,-3.645 1.63,0.352 1.62,-2.016 1.63,-0.007 1.62,13.453 1.62,-5.243 1.63,6.555 1.62,-4.449 1.62,-10.348 1.63,24.95 1.62,-21.934 1.63,-3.762 1.62,-0.898 1.63,17.418 3.25,-16.141 1.62,-1.855 1.62,5.668 4.88,41.078 1.62,-47.004 3.25,14.316 1.62,-12.871 1.62,-1.68 1.63,40.52 1.62,-40.621 3.25,0.215 1.63,-0.504 4.87,15.828 1.62,-17.016 3.25,8.246 1.63,-9.086 1.62,1.235 1.62,7.34 1.63,-7.899 1.62,5.574 1.62,-0.41 3.25,-5.64 1.63,1.062 1.62,19.922 1.62,-17.883 1.63,6.02 1.62,-6.215 1.63,3.809 1.62,-8.661 1.63,7.157 1.62,-4.786 1.63,5.036 1.62,9.363 1.62,-13.797 1.63,0.496 1.62,-4.754 1.62,-0.07 1.63,1.121 1.62,-0.867 1.63,1.93 1.62,-2.325 1.62,1.496 1.63,3.106 1.62,7.226 1.63,-11.918 1.62,15.305 1.62,-10.133 3.25,2.578 1.63,-1.531 1.62,-7.789 3.25,18.688 1.62,-11.602 1.63,15.563 3.25,-22.016 1.62,0.434 1.62,2.894 1.63,-3.879 1.62,-0.355 1.63,5.324 1.62,-6.895 1.62,10.961 1.63,2.102 1.62,-7.051 1.63,15.891 1.62,31.527 1.63,-40.625 1.62,-11.047 1.62,-0.164 1.63,3.348 1.62,-1.473 1.63,8.985 1.62,-13.274 1.62,-0.867 1.63,5.191 1.62,54.657 1.63,-59.895 1.62,-0.574 1.62,0.73 1.63,-0.98 1.62,1.16 1.62,-0.316 1.63,6.308 1.62,-7.348 1.63,-0.394 3.25,2.082 1.62,-0.703 1.63,2.773 1.62,-1.402 1.62,17.867 1.63,-20.453 1.62,13.582 1.63,0.5 3.24,15.367 3.25,-31.437 1.62,2.707 3.25,15.742 4.88,-19.285 1.62,0.695 1.63,41.402 3.24,-41.48 1.63,9.57 1.62,-9.125 1.63,0.383 1.62,2.109 3.25,-4.082 4.87,3.055 1.62,-4.402 3.25,2.902 1.62,-0.422 1.63,-2.195 1.62,0.023 4.88,24.036 1.62,-25.477 3.25,17.238 3.25,-17.761 1.62,2.769 1.62,5.344 1.63,-0.836 1.62,-6.82 1.63,11.925 1.62,46.868 1.62,-59.114 1.63,5.176 1.62,-5.5 1.63,45.656 1.62,-44.359 1.63,4.359 1.62,-7.14 1.63,1.207 1.62,4.894 1.62,-3.402 1.63,29.203 1.62,-30.59 1.62,-2.055 1.63,0.426 1.62,30.305 1.63,-26.809 1.62,-4.343 1.62,1.582 1.63,-1.957 1.62,15.472 1.63,0.367 1.62,-11.421 1.62,-3.454 1.63,3.95 1.62,13.785 1.63,-17.934 1.62,-0.281 1.63,5.48 1.62,-6.539 1.62,2.336 1.63,-2.863 3.25,2.281 1.62,-2.961 3.25,6.926 1.62,-2.219 1.63,29.973 1.62,-28.555 1.62,17.27 1.63,-20.211 1.62,-1.891 1.62,1.539 1.63,5.082 1.62,-1.238 1.63,2.52 1.62,-7.711 1.63,-0.715 1.62,1.797 3.25,-4.18 1.62,5.316 3.25,-6.296 1.63,7.609 1.62,-7.742 1.62,3.379 1.63,-3.926 1.62,3.875 1.62,-3 1.63,2.215 3.25,-2.735 1.62,16.993 1.63,-5.532 1.62,-11.847 1.63,-0.754 1.62,1.679 3.25,9.915 1.62,-0.723 1.63,-11.051 1.62,8.731 1.62,-9.344 1.63,12.812 1.62,-6.668 1.63,7.305 3.24,-10.359 1.63,-4.082 1.62,5.546 1.62,-3.671 1.63,6.621 1.62,-3.504 1.63,24.765 1.62,-29.586 1.63,1.586 1.62,-2.378 3.25,9.359 1.62,-5.598 1.63,1.703 1.62,10.848 1.62,-16.512 1.63,-1.234 1.62,3.121 1.63,0.516 1.62,-3.797 1.62,15.906 1.63,-13.465 1.62,1.102 1.63,-3.969 1.62,20.469 1.63,-13.055 1.62,-0.883 1.63,-7.312 3.24,0.293 1.63,26.441 1.62,-22.34 1.63,0.957 3.24,37.727 3.25,-33.25 1.62,0.32 1.63,-9.293 1.62,0.375 1.63,7.125 1.62,-8.844 1.62,-1.339 1.63,5.793 1.62,-6.02 1.63,30.391 1.62,-29.375 1.63,0.308 1.62,15.668 1.63,-17.605 1.62,3.492 1.62,-3.316 1.63,11.257 1.62,-11.015 4.87,12.976 1.63,-13.843 4.87,-0.856 3.25,1.504 1.62,-1.586 1.63,0.211 1.62,1.699 3.25,-2.672 3.25,0.594 1.62,6.551 1.62,23.699 3.25,-26.195 1.63,2.597 1.62,-8.168 1.62,0.36 1.63,2.601 3.25,11.508 1.62,-14.738 1.62,0.715 1.63,14.246 1.62,-14.668 4.88,5.344 1.62,-3.457 3.25,1.179 1.62,17.27 1.63,-22.215 1.62,1.758 4.87,-2.328 1.63,0.086 1.62,3.629 3.25,21.304 1.62,-25.226 1.62,3.238 1.63,-3.613 1.62,12.058 1.63,-1.625 1.62,-8.906 1.63,-1.98 1.62,26.257 1.63,-26.441 1.62,9.703 1.62,-9.227 1.63,2.946 1.62,-2.496 1.63,2.543 1.62,-4.512 1.62,23.832 1.63,-22.297 3.24,5.699 1.63,-7.718 4.87,3.058 1.63,3.68 3.25,-5.254 1.62,3.394 1.62,-3.335 1.63,0.046 1.62,21.52 1.63,-17.074 1.62,0.039 1.62,10.953 1.63,-18.484 3.24,-0.207 1.63,4.746 1.62,11.605 1.63,-16.258 1.62,0.391 1.62,3.281 1.63,23.09 1.62,-6.129 1.63,-21.551 9.74,0.25 1.63,23.723 3.24,-23.121 1.63,4.672 3.25,-5.989 1.62,3.915 1.62,-4.27 1.63,30.187 3.25,-12.035 1.62,-19.476 3.25,-0.539 1.63,6.359 1.62,-6.066 1.62,9.582 1.63,-7.93 1.62,21.402 1.62,-23.218 1.63,-0.883 3.25,19.554 1.62,-5.699 1.62,-12.804 1.63,1.945 1.62,-2.973 1.63,0.723 1.62,20.394 1.62,-11.015 1.63,1.16 1.62,-11.254 1.63,11.164 3.25,-11.984 1.62,1.82 1.62,40.375 3.25,-43.48 1.63,3.472 1.62,-1.199 1.62,8.059 1.63,-0.926 1.62,3.355 3.25,-11.519 3.25,-1.93 3.25,-0.543 1.62,1.832 1.63,-0.394 1.62,1.336 1.62,-2.379 v 0"
             style="fill:none;stroke:#1f77b4;stroke-width:15;stroke-linecap:square;stroke-linejoin:round;stroke-miterlimit:10;stroke-dasharray:none;stroke-opacity:1"
             id="path488"
             inkscape:connector-curvature="0" /></g></g><g
         id="g490"><g
           id="g492"
           clip-path="url(#clipPath496)"><path
             d="M 582,382.16 V 3043.28"
             style="fill:none;stroke:#000000;stroke-width:8;stroke-linecap:square;stroke-linejoin:miter;stroke-miterlimit:10;stroke-dasharray:none;stroke-opacity:1"
             id="path498"
             inkscape:connector-curvature="0" /><path
             d="M 4153.2,382.16 V 3043.28"
             style="fill:none;stroke:#000000;stroke-width:8;stroke-linecap:square;stroke-linejoin:miter;stroke-miterlimit:10;stroke-dasharray:none;stroke-opacity:1"
             id="path500"
             inkscape:connector-curvature="0" /><path
             d="M 582,382.16 H 4153.2"
             style="fill:none;stroke:#000000;stroke-width:8;stroke-linecap:square;stroke-linejoin:miter;stroke-miterlimit:10;stroke-dasharray:none;stroke-opacity:1"
             id="path502"
             inkscape:connector-curvature="0" /><path
             d="M 582,3043.28 H 4153.2"
             style="fill:none;stroke:#000000;stroke-width:8;stroke-linecap:square;stroke-linejoin:miter;stroke-miterlimit:10;stroke-dasharray:none;stroke-opacity:1"
             id="path504"
             inkscape:connector-curvature="0" /></g></g><rect
         style="opacity:1;fill:#ffffff;fill-opacity:1;fill-rule:nonzero;stroke:#ffffff;stroke-width:58.89056015;stroke-miterlimit:4;stroke-dasharray:none;stroke-opacity:1"
         id="rect1315"
         width="316.88156"
         height="119.53004"
         x="2162.269"
         y="-176.71414"
         transform="scale(1,-1)"
         rx="557.24554"
         ry="4.2721739" /><text
         xml:space="preserve"
         style="font-style:normal;font-weight:normal;font-size:130px;line-height:1.25;font-family:sans-serif;letter-spacing:0px;word-spacing:0px;fill:#000000;fill-opacity:1;stroke:none;stroke-width:7.5"
         x="2178.1782"
         y="-73.093239"
         id="text1319"
         transform="scale(1,-1)"><tspan
           sodipodi:role="line"
           id="tspan1317"
           x="2178.1782"
           y="-73.093239"
           style="font-size:130px;stroke-width:7.5">Epoch</tspan></text>
<rect
         style="opacity:1;fill:#ffffff;fill-opacity:1;fill-rule:nonzero;stroke:none;stroke-width:90.70866394;stroke-miterlimit:4;stroke-dasharray:none;stroke-opacity:1"
         id="rect4257"
         width="248.51695"
         height="453.17798"
         x="21.927963"
         y="-1944.2797"
         transform="scale(1,-1)"
         rx="745.51202"
         ry="7.5761247" /><text
         xml:space="preserve"
         style="font-style:normal;font-weight:normal;font-size:130px;line-height:1.25;font-family:sans-serif;letter-spacing:0px;word-spacing:0px;fill:#000000;fill-opacity:1;stroke:none;stroke-width:7.5"
         x="1550.0554"
         y="197.11368"
         id="text1319-9"
         transform="matrix(0,1,1,0,0,0)"><tspan
           sodipodi:role="line"
           id="tspan1317-0"
           x="1550.0554"
           y="197.11368"
           style="font-size:130px;stroke-width:7.5">RMSE</tspan></text>
</g><rect
       style="opacity:0;fill:#ffffff;fill-opacity:1;fill-rule:nonzero;stroke:#ffffff;stroke-width:9.07086658;stroke-miterlimit:4;stroke-dasharray:none;stroke-opacity:1"
       id="rect1311"
       width="40.932205"
       height="13.15678"
       x="219.27968"
       y="-19.004244"
       transform="scale(1,-1)"
       rx="74.551208"
       ry="0.75761247" /></g></svg>